G04 #@! TF.FileFunction,Copper,L2,Bot,Signal*
%FSLAX46Y46*%
G04 Gerber Fmt 4.6, Leading zero omitted, Abs format (unit mm)*
G04 Created by KiCad (PCBNEW 4.0.2-stable) date 09/07/2016 13:23:45*
%MOMM*%
G01*
G04 APERTURE LIST*
%ADD10C,0.100000*%
%ADD11C,1.524000*%
%ADD12C,1.800000*%
%ADD13R,1.800000X1.800000*%
%ADD14O,1.600000X2.300000*%
%ADD15C,1.998980*%
%ADD16C,2.000000*%
%ADD17C,0.600000*%
%ADD18C,0.254000*%
G04 APERTURE END LIST*
D10*
D11*
X125730000Y-84900000D03*
X125730000Y-105520000D03*
D12*
X111760000Y-111760000D03*
D13*
X109220000Y-111760000D03*
D12*
X133350000Y-111760000D03*
D13*
X130810000Y-111760000D03*
D12*
X154940000Y-111760000D03*
D13*
X152400000Y-111760000D03*
D12*
X176530000Y-111760000D03*
D13*
X173990000Y-111760000D03*
D14*
X123190000Y-96520000D03*
X125730000Y-96520000D03*
X128270000Y-96520000D03*
X130810000Y-96520000D03*
X133350000Y-96520000D03*
X135890000Y-96520000D03*
X138430000Y-96520000D03*
X138430000Y-88900000D03*
X135890000Y-88900000D03*
X133350000Y-88900000D03*
X130810000Y-88900000D03*
X128270000Y-88900000D03*
X125730000Y-88900000D03*
X123190000Y-88900000D03*
D15*
X118110000Y-106680000D03*
X118110000Y-116840000D03*
X139700000Y-105410000D03*
X139700000Y-115570000D03*
X146050000Y-105410000D03*
X146050000Y-115570000D03*
X167640000Y-105410000D03*
X167640000Y-115570000D03*
X144780000Y-97790000D03*
X144780000Y-87630000D03*
D11*
X160020000Y-85170000D03*
X160020000Y-95170000D03*
D16*
X118260000Y-123230000D03*
X118260000Y-128230000D03*
X105260000Y-128230000D03*
X105260000Y-123230000D03*
X138580000Y-123230000D03*
X138580000Y-128230000D03*
X125580000Y-128230000D03*
X125580000Y-123230000D03*
X158900000Y-123230000D03*
X158900000Y-128230000D03*
X145900000Y-128230000D03*
X145900000Y-123230000D03*
X179220000Y-123230000D03*
X179220000Y-128230000D03*
X166220000Y-128230000D03*
X166220000Y-123230000D03*
D17*
X153670000Y-104140000D03*
D18*
G36*
X182753000Y-131953000D02*
X101727000Y-131953000D01*
X101727000Y-129382532D01*
X104287073Y-129382532D01*
X104385736Y-129649387D01*
X104995461Y-129875908D01*
X105645460Y-129851856D01*
X106134264Y-129649387D01*
X106232927Y-129382532D01*
X117287073Y-129382532D01*
X117385736Y-129649387D01*
X117995461Y-129875908D01*
X118645460Y-129851856D01*
X119134264Y-129649387D01*
X119232927Y-129382532D01*
X124607073Y-129382532D01*
X124705736Y-129649387D01*
X125315461Y-129875908D01*
X125965460Y-129851856D01*
X126454264Y-129649387D01*
X126552927Y-129382532D01*
X137607073Y-129382532D01*
X137705736Y-129649387D01*
X138315461Y-129875908D01*
X138965460Y-129851856D01*
X139454264Y-129649387D01*
X139552927Y-129382532D01*
X144927073Y-129382532D01*
X145025736Y-129649387D01*
X145635461Y-129875908D01*
X146285460Y-129851856D01*
X146774264Y-129649387D01*
X146872927Y-129382532D01*
X157927073Y-129382532D01*
X158025736Y-129649387D01*
X158635461Y-129875908D01*
X159285460Y-129851856D01*
X159774264Y-129649387D01*
X159872927Y-129382532D01*
X165247073Y-129382532D01*
X165345736Y-129649387D01*
X165955461Y-129875908D01*
X166605460Y-129851856D01*
X167094264Y-129649387D01*
X167192927Y-129382532D01*
X178247073Y-129382532D01*
X178345736Y-129649387D01*
X178955461Y-129875908D01*
X179605460Y-129851856D01*
X180094264Y-129649387D01*
X180192927Y-129382532D01*
X179220000Y-128409605D01*
X178247073Y-129382532D01*
X167192927Y-129382532D01*
X166220000Y-128409605D01*
X165247073Y-129382532D01*
X159872927Y-129382532D01*
X158900000Y-128409605D01*
X157927073Y-129382532D01*
X146872927Y-129382532D01*
X145900000Y-128409605D01*
X144927073Y-129382532D01*
X139552927Y-129382532D01*
X138580000Y-128409605D01*
X137607073Y-129382532D01*
X126552927Y-129382532D01*
X125580000Y-128409605D01*
X124607073Y-129382532D01*
X119232927Y-129382532D01*
X118260000Y-128409605D01*
X117287073Y-129382532D01*
X106232927Y-129382532D01*
X105260000Y-128409605D01*
X104287073Y-129382532D01*
X101727000Y-129382532D01*
X101727000Y-127965461D01*
X103614092Y-127965461D01*
X103638144Y-128615460D01*
X103840613Y-129104264D01*
X104107468Y-129202927D01*
X105080395Y-128230000D01*
X105439605Y-128230000D01*
X106412532Y-129202927D01*
X106679387Y-129104264D01*
X106905908Y-128494539D01*
X106886331Y-127965461D01*
X116614092Y-127965461D01*
X116638144Y-128615460D01*
X116840613Y-129104264D01*
X117107468Y-129202927D01*
X118080395Y-128230000D01*
X118439605Y-128230000D01*
X119412532Y-129202927D01*
X119679387Y-129104264D01*
X119905908Y-128494539D01*
X119886331Y-127965461D01*
X123934092Y-127965461D01*
X123958144Y-128615460D01*
X124160613Y-129104264D01*
X124427468Y-129202927D01*
X125400395Y-128230000D01*
X125759605Y-128230000D01*
X126732532Y-129202927D01*
X126999387Y-129104264D01*
X127225908Y-128494539D01*
X127206331Y-127965461D01*
X136934092Y-127965461D01*
X136958144Y-128615460D01*
X137160613Y-129104264D01*
X137427468Y-129202927D01*
X138400395Y-128230000D01*
X138759605Y-128230000D01*
X139732532Y-129202927D01*
X139999387Y-129104264D01*
X140225908Y-128494539D01*
X140206331Y-127965461D01*
X144254092Y-127965461D01*
X144278144Y-128615460D01*
X144480613Y-129104264D01*
X144747468Y-129202927D01*
X145720395Y-128230000D01*
X146079605Y-128230000D01*
X147052532Y-129202927D01*
X147319387Y-129104264D01*
X147545908Y-128494539D01*
X147526331Y-127965461D01*
X157254092Y-127965461D01*
X157278144Y-128615460D01*
X157480613Y-129104264D01*
X157747468Y-129202927D01*
X158720395Y-128230000D01*
X159079605Y-128230000D01*
X160052532Y-129202927D01*
X160319387Y-129104264D01*
X160545908Y-128494539D01*
X160526331Y-127965461D01*
X164574092Y-127965461D01*
X164598144Y-128615460D01*
X164800613Y-129104264D01*
X165067468Y-129202927D01*
X166040395Y-128230000D01*
X166399605Y-128230000D01*
X167372532Y-129202927D01*
X167639387Y-129104264D01*
X167865908Y-128494539D01*
X167846331Y-127965461D01*
X177574092Y-127965461D01*
X177598144Y-128615460D01*
X177800613Y-129104264D01*
X178067468Y-129202927D01*
X179040395Y-128230000D01*
X179399605Y-128230000D01*
X180372532Y-129202927D01*
X180639387Y-129104264D01*
X180865908Y-128494539D01*
X180841856Y-127844540D01*
X180639387Y-127355736D01*
X180372532Y-127257073D01*
X179399605Y-128230000D01*
X179040395Y-128230000D01*
X178067468Y-127257073D01*
X177800613Y-127355736D01*
X177574092Y-127965461D01*
X167846331Y-127965461D01*
X167841856Y-127844540D01*
X167639387Y-127355736D01*
X167372532Y-127257073D01*
X166399605Y-128230000D01*
X166040395Y-128230000D01*
X165067468Y-127257073D01*
X164800613Y-127355736D01*
X164574092Y-127965461D01*
X160526331Y-127965461D01*
X160521856Y-127844540D01*
X160319387Y-127355736D01*
X160052532Y-127257073D01*
X159079605Y-128230000D01*
X158720395Y-128230000D01*
X157747468Y-127257073D01*
X157480613Y-127355736D01*
X157254092Y-127965461D01*
X147526331Y-127965461D01*
X147521856Y-127844540D01*
X147319387Y-127355736D01*
X147052532Y-127257073D01*
X146079605Y-128230000D01*
X145720395Y-128230000D01*
X144747468Y-127257073D01*
X144480613Y-127355736D01*
X144254092Y-127965461D01*
X140206331Y-127965461D01*
X140201856Y-127844540D01*
X139999387Y-127355736D01*
X139732532Y-127257073D01*
X138759605Y-128230000D01*
X138400395Y-128230000D01*
X137427468Y-127257073D01*
X137160613Y-127355736D01*
X136934092Y-127965461D01*
X127206331Y-127965461D01*
X127201856Y-127844540D01*
X126999387Y-127355736D01*
X126732532Y-127257073D01*
X125759605Y-128230000D01*
X125400395Y-128230000D01*
X124427468Y-127257073D01*
X124160613Y-127355736D01*
X123934092Y-127965461D01*
X119886331Y-127965461D01*
X119881856Y-127844540D01*
X119679387Y-127355736D01*
X119412532Y-127257073D01*
X118439605Y-128230000D01*
X118080395Y-128230000D01*
X117107468Y-127257073D01*
X116840613Y-127355736D01*
X116614092Y-127965461D01*
X106886331Y-127965461D01*
X106881856Y-127844540D01*
X106679387Y-127355736D01*
X106412532Y-127257073D01*
X105439605Y-128230000D01*
X105080395Y-128230000D01*
X104107468Y-127257073D01*
X103840613Y-127355736D01*
X103614092Y-127965461D01*
X101727000Y-127965461D01*
X101727000Y-127077468D01*
X104287073Y-127077468D01*
X105260000Y-128050395D01*
X106232927Y-127077468D01*
X117287073Y-127077468D01*
X118260000Y-128050395D01*
X119232927Y-127077468D01*
X124607073Y-127077468D01*
X125580000Y-128050395D01*
X126552927Y-127077468D01*
X137607073Y-127077468D01*
X138580000Y-128050395D01*
X139552927Y-127077468D01*
X144927073Y-127077468D01*
X145900000Y-128050395D01*
X146872927Y-127077468D01*
X157927073Y-127077468D01*
X158900000Y-128050395D01*
X159872927Y-127077468D01*
X165247073Y-127077468D01*
X166220000Y-128050395D01*
X167192927Y-127077468D01*
X178247073Y-127077468D01*
X179220000Y-128050395D01*
X180192927Y-127077468D01*
X180094264Y-126810613D01*
X179484539Y-126584092D01*
X178834540Y-126608144D01*
X178345736Y-126810613D01*
X178247073Y-127077468D01*
X167192927Y-127077468D01*
X167094264Y-126810613D01*
X166484539Y-126584092D01*
X165834540Y-126608144D01*
X165345736Y-126810613D01*
X165247073Y-127077468D01*
X159872927Y-127077468D01*
X159774264Y-126810613D01*
X159164539Y-126584092D01*
X158514540Y-126608144D01*
X158025736Y-126810613D01*
X157927073Y-127077468D01*
X146872927Y-127077468D01*
X146774264Y-126810613D01*
X146164539Y-126584092D01*
X145514540Y-126608144D01*
X145025736Y-126810613D01*
X144927073Y-127077468D01*
X139552927Y-127077468D01*
X139454264Y-126810613D01*
X138844539Y-126584092D01*
X138194540Y-126608144D01*
X137705736Y-126810613D01*
X137607073Y-127077468D01*
X126552927Y-127077468D01*
X126454264Y-126810613D01*
X125844539Y-126584092D01*
X125194540Y-126608144D01*
X124705736Y-126810613D01*
X124607073Y-127077468D01*
X119232927Y-127077468D01*
X119134264Y-126810613D01*
X118524539Y-126584092D01*
X117874540Y-126608144D01*
X117385736Y-126810613D01*
X117287073Y-127077468D01*
X106232927Y-127077468D01*
X106134264Y-126810613D01*
X105524539Y-126584092D01*
X104874540Y-126608144D01*
X104385736Y-126810613D01*
X104287073Y-127077468D01*
X101727000Y-127077468D01*
X101727000Y-123553795D01*
X103624716Y-123553795D01*
X103873106Y-124154943D01*
X104332637Y-124615278D01*
X104933352Y-124864716D01*
X105583795Y-124865284D01*
X106184943Y-124616894D01*
X106645278Y-124157363D01*
X106894716Y-123556648D01*
X106894718Y-123553795D01*
X116624716Y-123553795D01*
X116873106Y-124154943D01*
X117332637Y-124615278D01*
X117933352Y-124864716D01*
X118583795Y-124865284D01*
X119184943Y-124616894D01*
X119645278Y-124157363D01*
X119894716Y-123556648D01*
X119894718Y-123553795D01*
X123944716Y-123553795D01*
X124193106Y-124154943D01*
X124652637Y-124615278D01*
X125253352Y-124864716D01*
X125903795Y-124865284D01*
X126504943Y-124616894D01*
X126965278Y-124157363D01*
X127214716Y-123556648D01*
X127214718Y-123553795D01*
X136944716Y-123553795D01*
X137193106Y-124154943D01*
X137652637Y-124615278D01*
X138253352Y-124864716D01*
X138903795Y-124865284D01*
X139504943Y-124616894D01*
X139965278Y-124157363D01*
X140214716Y-123556648D01*
X140214718Y-123553795D01*
X144264716Y-123553795D01*
X144513106Y-124154943D01*
X144972637Y-124615278D01*
X145573352Y-124864716D01*
X146223795Y-124865284D01*
X146824943Y-124616894D01*
X147285278Y-124157363D01*
X147534716Y-123556648D01*
X147534718Y-123553795D01*
X157264716Y-123553795D01*
X157513106Y-124154943D01*
X157972637Y-124615278D01*
X158573352Y-124864716D01*
X159223795Y-124865284D01*
X159824943Y-124616894D01*
X160285278Y-124157363D01*
X160534716Y-123556648D01*
X160534718Y-123553795D01*
X164584716Y-123553795D01*
X164833106Y-124154943D01*
X165292637Y-124615278D01*
X165893352Y-124864716D01*
X166543795Y-124865284D01*
X167144943Y-124616894D01*
X167605278Y-124157363D01*
X167854716Y-123556648D01*
X167854718Y-123553795D01*
X177584716Y-123553795D01*
X177833106Y-124154943D01*
X178292637Y-124615278D01*
X178893352Y-124864716D01*
X179543795Y-124865284D01*
X180144943Y-124616894D01*
X180605278Y-124157363D01*
X180854716Y-123556648D01*
X180855284Y-122906205D01*
X180606894Y-122305057D01*
X180147363Y-121844722D01*
X179546648Y-121595284D01*
X178896205Y-121594716D01*
X178295057Y-121843106D01*
X177834722Y-122302637D01*
X177585284Y-122903352D01*
X177584716Y-123553795D01*
X167854718Y-123553795D01*
X167855284Y-122906205D01*
X167606894Y-122305057D01*
X167147363Y-121844722D01*
X166546648Y-121595284D01*
X165896205Y-121594716D01*
X165295057Y-121843106D01*
X164834722Y-122302637D01*
X164585284Y-122903352D01*
X164584716Y-123553795D01*
X160534718Y-123553795D01*
X160535284Y-122906205D01*
X160286894Y-122305057D01*
X159827363Y-121844722D01*
X159226648Y-121595284D01*
X158576205Y-121594716D01*
X157975057Y-121843106D01*
X157514722Y-122302637D01*
X157265284Y-122903352D01*
X157264716Y-123553795D01*
X147534718Y-123553795D01*
X147535284Y-122906205D01*
X147286894Y-122305057D01*
X146827363Y-121844722D01*
X146226648Y-121595284D01*
X145576205Y-121594716D01*
X144975057Y-121843106D01*
X144514722Y-122302637D01*
X144265284Y-122903352D01*
X144264716Y-123553795D01*
X140214718Y-123553795D01*
X140215284Y-122906205D01*
X139966894Y-122305057D01*
X139507363Y-121844722D01*
X138906648Y-121595284D01*
X138256205Y-121594716D01*
X137655057Y-121843106D01*
X137194722Y-122302637D01*
X136945284Y-122903352D01*
X136944716Y-123553795D01*
X127214718Y-123553795D01*
X127215284Y-122906205D01*
X126966894Y-122305057D01*
X126507363Y-121844722D01*
X125906648Y-121595284D01*
X125256205Y-121594716D01*
X124655057Y-121843106D01*
X124194722Y-122302637D01*
X123945284Y-122903352D01*
X123944716Y-123553795D01*
X119894718Y-123553795D01*
X119895284Y-122906205D01*
X119646894Y-122305057D01*
X119187363Y-121844722D01*
X118586648Y-121595284D01*
X117936205Y-121594716D01*
X117335057Y-121843106D01*
X116874722Y-122302637D01*
X116625284Y-122903352D01*
X116624716Y-123553795D01*
X106894718Y-123553795D01*
X106895284Y-122906205D01*
X106646894Y-122305057D01*
X106187363Y-121844722D01*
X105586648Y-121595284D01*
X104936205Y-121594716D01*
X104335057Y-121843106D01*
X103874722Y-122302637D01*
X103625284Y-122903352D01*
X103624716Y-123553795D01*
X101727000Y-123553795D01*
X101727000Y-117163694D01*
X116475226Y-117163694D01*
X116723538Y-117764655D01*
X117182927Y-118224846D01*
X117783453Y-118474206D01*
X118433694Y-118474774D01*
X119034655Y-118226462D01*
X119494846Y-117767073D01*
X119744206Y-117166547D01*
X119744774Y-116516306D01*
X119496462Y-115915345D01*
X119474849Y-115893694D01*
X138065226Y-115893694D01*
X138313538Y-116494655D01*
X138772927Y-116954846D01*
X139373453Y-117204206D01*
X140023694Y-117204774D01*
X140624655Y-116956462D01*
X141084846Y-116497073D01*
X141334206Y-115896547D01*
X141334208Y-115893694D01*
X144415226Y-115893694D01*
X144663538Y-116494655D01*
X145122927Y-116954846D01*
X145723453Y-117204206D01*
X146373694Y-117204774D01*
X146974655Y-116956462D01*
X147434846Y-116497073D01*
X147684206Y-115896547D01*
X147684208Y-115893694D01*
X166005226Y-115893694D01*
X166253538Y-116494655D01*
X166712927Y-116954846D01*
X167313453Y-117204206D01*
X167963694Y-117204774D01*
X168564655Y-116956462D01*
X169024846Y-116497073D01*
X169274206Y-115896547D01*
X169274774Y-115246306D01*
X169026462Y-114645345D01*
X168567073Y-114185154D01*
X167966547Y-113935794D01*
X167316306Y-113935226D01*
X166715345Y-114183538D01*
X166255154Y-114642927D01*
X166005794Y-115243453D01*
X166005226Y-115893694D01*
X147684208Y-115893694D01*
X147684774Y-115246306D01*
X147436462Y-114645345D01*
X146977073Y-114185154D01*
X146376547Y-113935794D01*
X145726306Y-113935226D01*
X145125345Y-114183538D01*
X144665154Y-114642927D01*
X144415794Y-115243453D01*
X144415226Y-115893694D01*
X141334208Y-115893694D01*
X141334774Y-115246306D01*
X141086462Y-114645345D01*
X140627073Y-114185154D01*
X140026547Y-113935794D01*
X139376306Y-113935226D01*
X138775345Y-114183538D01*
X138315154Y-114642927D01*
X138065794Y-115243453D01*
X138065226Y-115893694D01*
X119474849Y-115893694D01*
X119037073Y-115455154D01*
X118436547Y-115205794D01*
X117786306Y-115205226D01*
X117185345Y-115453538D01*
X116725154Y-115912927D01*
X116475794Y-116513453D01*
X116475226Y-117163694D01*
X101727000Y-117163694D01*
X101727000Y-112045750D01*
X107685000Y-112045750D01*
X107685000Y-112786310D01*
X107781673Y-113019699D01*
X107960302Y-113198327D01*
X108193691Y-113295000D01*
X108934250Y-113295000D01*
X109093000Y-113136250D01*
X109093000Y-111887000D01*
X107843750Y-111887000D01*
X107685000Y-112045750D01*
X101727000Y-112045750D01*
X101727000Y-110733690D01*
X107685000Y-110733690D01*
X107685000Y-111474250D01*
X107843750Y-111633000D01*
X109093000Y-111633000D01*
X109093000Y-110383750D01*
X109347000Y-110383750D01*
X109347000Y-111633000D01*
X109367000Y-111633000D01*
X109367000Y-111887000D01*
X109347000Y-111887000D01*
X109347000Y-113136250D01*
X109505750Y-113295000D01*
X110246309Y-113295000D01*
X110479698Y-113198327D01*
X110658327Y-113019699D01*
X110714119Y-112885006D01*
X110889357Y-113060551D01*
X111453330Y-113294733D01*
X112063991Y-113295265D01*
X112628371Y-113062068D01*
X113060551Y-112630643D01*
X113294733Y-112066670D01*
X113294751Y-112045750D01*
X129275000Y-112045750D01*
X129275000Y-112786310D01*
X129371673Y-113019699D01*
X129550302Y-113198327D01*
X129783691Y-113295000D01*
X130524250Y-113295000D01*
X130683000Y-113136250D01*
X130683000Y-111887000D01*
X129433750Y-111887000D01*
X129275000Y-112045750D01*
X113294751Y-112045750D01*
X113295265Y-111456009D01*
X113062068Y-110891629D01*
X112904405Y-110733690D01*
X129275000Y-110733690D01*
X129275000Y-111474250D01*
X129433750Y-111633000D01*
X130683000Y-111633000D01*
X130683000Y-110383750D01*
X130937000Y-110383750D01*
X130937000Y-111633000D01*
X130957000Y-111633000D01*
X130957000Y-111887000D01*
X130937000Y-111887000D01*
X130937000Y-113136250D01*
X131095750Y-113295000D01*
X131836309Y-113295000D01*
X132069698Y-113198327D01*
X132248327Y-113019699D01*
X132304119Y-112885006D01*
X132479357Y-113060551D01*
X133043330Y-113294733D01*
X133653991Y-113295265D01*
X134218371Y-113062068D01*
X134650551Y-112630643D01*
X134884733Y-112066670D01*
X134884751Y-112045750D01*
X150865000Y-112045750D01*
X150865000Y-112786310D01*
X150961673Y-113019699D01*
X151140302Y-113198327D01*
X151373691Y-113295000D01*
X152114250Y-113295000D01*
X152273000Y-113136250D01*
X152273000Y-111887000D01*
X151023750Y-111887000D01*
X150865000Y-112045750D01*
X134884751Y-112045750D01*
X134885265Y-111456009D01*
X134652068Y-110891629D01*
X134494405Y-110733690D01*
X150865000Y-110733690D01*
X150865000Y-111474250D01*
X151023750Y-111633000D01*
X152273000Y-111633000D01*
X152273000Y-110383750D01*
X152527000Y-110383750D01*
X152527000Y-111633000D01*
X152547000Y-111633000D01*
X152547000Y-111887000D01*
X152527000Y-111887000D01*
X152527000Y-113136250D01*
X152685750Y-113295000D01*
X153426309Y-113295000D01*
X153659698Y-113198327D01*
X153838327Y-113019699D01*
X153894119Y-112885006D01*
X154069357Y-113060551D01*
X154633330Y-113294733D01*
X155243991Y-113295265D01*
X155808371Y-113062068D01*
X156240551Y-112630643D01*
X156474733Y-112066670D01*
X156474751Y-112045750D01*
X172455000Y-112045750D01*
X172455000Y-112786310D01*
X172551673Y-113019699D01*
X172730302Y-113198327D01*
X172963691Y-113295000D01*
X173704250Y-113295000D01*
X173863000Y-113136250D01*
X173863000Y-111887000D01*
X172613750Y-111887000D01*
X172455000Y-112045750D01*
X156474751Y-112045750D01*
X156475265Y-111456009D01*
X156242068Y-110891629D01*
X156084405Y-110733690D01*
X172455000Y-110733690D01*
X172455000Y-111474250D01*
X172613750Y-111633000D01*
X173863000Y-111633000D01*
X173863000Y-110383750D01*
X174117000Y-110383750D01*
X174117000Y-111633000D01*
X174137000Y-111633000D01*
X174137000Y-111887000D01*
X174117000Y-111887000D01*
X174117000Y-113136250D01*
X174275750Y-113295000D01*
X175016309Y-113295000D01*
X175249698Y-113198327D01*
X175428327Y-113019699D01*
X175484119Y-112885006D01*
X175659357Y-113060551D01*
X176223330Y-113294733D01*
X176833991Y-113295265D01*
X177398371Y-113062068D01*
X177830551Y-112630643D01*
X178064733Y-112066670D01*
X178065265Y-111456009D01*
X177832068Y-110891629D01*
X177400643Y-110459449D01*
X176836670Y-110225267D01*
X176226009Y-110224735D01*
X175661629Y-110457932D01*
X175484159Y-110635092D01*
X175428327Y-110500301D01*
X175249698Y-110321673D01*
X175016309Y-110225000D01*
X174275750Y-110225000D01*
X174117000Y-110383750D01*
X173863000Y-110383750D01*
X173704250Y-110225000D01*
X172963691Y-110225000D01*
X172730302Y-110321673D01*
X172551673Y-110500301D01*
X172455000Y-110733690D01*
X156084405Y-110733690D01*
X155810643Y-110459449D01*
X155246670Y-110225267D01*
X154636009Y-110224735D01*
X154071629Y-110457932D01*
X153894159Y-110635092D01*
X153838327Y-110500301D01*
X153659698Y-110321673D01*
X153426309Y-110225000D01*
X152685750Y-110225000D01*
X152527000Y-110383750D01*
X152273000Y-110383750D01*
X152114250Y-110225000D01*
X151373691Y-110225000D01*
X151140302Y-110321673D01*
X150961673Y-110500301D01*
X150865000Y-110733690D01*
X134494405Y-110733690D01*
X134220643Y-110459449D01*
X133656670Y-110225267D01*
X133046009Y-110224735D01*
X132481629Y-110457932D01*
X132304159Y-110635092D01*
X132248327Y-110500301D01*
X132069698Y-110321673D01*
X131836309Y-110225000D01*
X131095750Y-110225000D01*
X130937000Y-110383750D01*
X130683000Y-110383750D01*
X130524250Y-110225000D01*
X129783691Y-110225000D01*
X129550302Y-110321673D01*
X129371673Y-110500301D01*
X129275000Y-110733690D01*
X112904405Y-110733690D01*
X112630643Y-110459449D01*
X112066670Y-110225267D01*
X111456009Y-110224735D01*
X110891629Y-110457932D01*
X110714159Y-110635092D01*
X110658327Y-110500301D01*
X110479698Y-110321673D01*
X110246309Y-110225000D01*
X109505750Y-110225000D01*
X109347000Y-110383750D01*
X109093000Y-110383750D01*
X108934250Y-110225000D01*
X108193691Y-110225000D01*
X107960302Y-110321673D01*
X107781673Y-110500301D01*
X107685000Y-110733690D01*
X101727000Y-110733690D01*
X101727000Y-107003694D01*
X116475226Y-107003694D01*
X116723538Y-107604655D01*
X117182927Y-108064846D01*
X117783453Y-108314206D01*
X118433694Y-108314774D01*
X119034655Y-108066462D01*
X119494846Y-107607073D01*
X119744206Y-107006547D01*
X119744774Y-106356306D01*
X119513534Y-105796661D01*
X124332758Y-105796661D01*
X124544990Y-106310303D01*
X124937630Y-106703629D01*
X125450900Y-106916757D01*
X126006661Y-106917242D01*
X126520303Y-106705010D01*
X126913629Y-106312370D01*
X127126757Y-105799100D01*
X127126814Y-105733694D01*
X138065226Y-105733694D01*
X138313538Y-106334655D01*
X138772927Y-106794846D01*
X139373453Y-107044206D01*
X140023694Y-107044774D01*
X140624655Y-106796462D01*
X141084846Y-106337073D01*
X141334206Y-105736547D01*
X141334208Y-105733694D01*
X144415226Y-105733694D01*
X144663538Y-106334655D01*
X145122927Y-106794846D01*
X145723453Y-107044206D01*
X146373694Y-107044774D01*
X146974655Y-106796462D01*
X147434846Y-106337073D01*
X147684206Y-105736547D01*
X147684208Y-105733694D01*
X166005226Y-105733694D01*
X166253538Y-106334655D01*
X166712927Y-106794846D01*
X167313453Y-107044206D01*
X167963694Y-107044774D01*
X168564655Y-106796462D01*
X169024846Y-106337073D01*
X169274206Y-105736547D01*
X169274774Y-105086306D01*
X169026462Y-104485345D01*
X168567073Y-104025154D01*
X167966547Y-103775794D01*
X167316306Y-103775226D01*
X166715345Y-104023538D01*
X166255154Y-104482927D01*
X166005794Y-105083453D01*
X166005226Y-105733694D01*
X147684208Y-105733694D01*
X147684774Y-105086306D01*
X147436462Y-104485345D01*
X147276564Y-104325167D01*
X152734838Y-104325167D01*
X152876883Y-104668943D01*
X153139673Y-104932192D01*
X153483201Y-105074838D01*
X153855167Y-105075162D01*
X154198943Y-104933117D01*
X154462192Y-104670327D01*
X154604838Y-104326799D01*
X154605162Y-103954833D01*
X154463117Y-103611057D01*
X154200327Y-103347808D01*
X153856799Y-103205162D01*
X153484833Y-103204838D01*
X153141057Y-103346883D01*
X152877808Y-103609673D01*
X152735162Y-103953201D01*
X152734838Y-104325167D01*
X147276564Y-104325167D01*
X146977073Y-104025154D01*
X146376547Y-103775794D01*
X145726306Y-103775226D01*
X145125345Y-104023538D01*
X144665154Y-104482927D01*
X144415794Y-105083453D01*
X144415226Y-105733694D01*
X141334208Y-105733694D01*
X141334774Y-105086306D01*
X141086462Y-104485345D01*
X140627073Y-104025154D01*
X140026547Y-103775794D01*
X139376306Y-103775226D01*
X138775345Y-104023538D01*
X138315154Y-104482927D01*
X138065794Y-105083453D01*
X138065226Y-105733694D01*
X127126814Y-105733694D01*
X127127242Y-105243339D01*
X126915010Y-104729697D01*
X126522370Y-104336371D01*
X126009100Y-104123243D01*
X125453339Y-104122758D01*
X124939697Y-104334990D01*
X124546371Y-104727630D01*
X124333243Y-105240900D01*
X124332758Y-105796661D01*
X119513534Y-105796661D01*
X119496462Y-105755345D01*
X119037073Y-105295154D01*
X118436547Y-105045794D01*
X117786306Y-105045226D01*
X117185345Y-105293538D01*
X116725154Y-105752927D01*
X116475794Y-106353453D01*
X116475226Y-107003694D01*
X101727000Y-107003694D01*
X101727000Y-96135030D01*
X121755000Y-96135030D01*
X121755000Y-96904970D01*
X121864233Y-97454121D01*
X122175302Y-97919668D01*
X122640849Y-98230737D01*
X123190000Y-98339970D01*
X123739151Y-98230737D01*
X124204698Y-97919668D01*
X124460000Y-97537582D01*
X124715302Y-97919668D01*
X125180849Y-98230737D01*
X125730000Y-98339970D01*
X126279151Y-98230737D01*
X126744698Y-97919668D01*
X127000000Y-97537582D01*
X127255302Y-97919668D01*
X127720849Y-98230737D01*
X128270000Y-98339970D01*
X128819151Y-98230737D01*
X129284698Y-97919668D01*
X129540000Y-97537582D01*
X129795302Y-97919668D01*
X130260849Y-98230737D01*
X130810000Y-98339970D01*
X131359151Y-98230737D01*
X131824698Y-97919668D01*
X132080000Y-97537582D01*
X132335302Y-97919668D01*
X132800849Y-98230737D01*
X133350000Y-98339970D01*
X133899151Y-98230737D01*
X134364698Y-97919668D01*
X134620000Y-97537582D01*
X134875302Y-97919668D01*
X135340849Y-98230737D01*
X135890000Y-98339970D01*
X136439151Y-98230737D01*
X136904698Y-97919668D01*
X137160000Y-97537582D01*
X137415302Y-97919668D01*
X137880849Y-98230737D01*
X138430000Y-98339970D01*
X138979151Y-98230737D01*
X139154317Y-98113694D01*
X143145226Y-98113694D01*
X143393538Y-98714655D01*
X143852927Y-99174846D01*
X144453453Y-99424206D01*
X145103694Y-99424774D01*
X145704655Y-99176462D01*
X146164846Y-98717073D01*
X146414206Y-98116547D01*
X146414774Y-97466306D01*
X146166462Y-96865345D01*
X145707073Y-96405154D01*
X145106547Y-96155794D01*
X144456306Y-96155226D01*
X143855345Y-96403538D01*
X143395154Y-96862927D01*
X143145794Y-97463453D01*
X143145226Y-98113694D01*
X139154317Y-98113694D01*
X139444698Y-97919668D01*
X139755767Y-97454121D01*
X139865000Y-96904970D01*
X139865000Y-96150213D01*
X159219392Y-96150213D01*
X159288857Y-96392397D01*
X159812302Y-96579144D01*
X160367368Y-96551362D01*
X160751143Y-96392397D01*
X160820608Y-96150213D01*
X160020000Y-95349605D01*
X159219392Y-96150213D01*
X139865000Y-96150213D01*
X139865000Y-96135030D01*
X139755767Y-95585879D01*
X139444698Y-95120332D01*
X139208190Y-94962302D01*
X158610856Y-94962302D01*
X158638638Y-95517368D01*
X158797603Y-95901143D01*
X159039787Y-95970608D01*
X159840395Y-95170000D01*
X160199605Y-95170000D01*
X161000213Y-95970608D01*
X161242397Y-95901143D01*
X161429144Y-95377698D01*
X161401362Y-94822632D01*
X161242397Y-94438857D01*
X161000213Y-94369392D01*
X160199605Y-95170000D01*
X159840395Y-95170000D01*
X159039787Y-94369392D01*
X158797603Y-94438857D01*
X158610856Y-94962302D01*
X139208190Y-94962302D01*
X138979151Y-94809263D01*
X138430000Y-94700030D01*
X137880849Y-94809263D01*
X137415302Y-95120332D01*
X137160000Y-95502418D01*
X136904698Y-95120332D01*
X136439151Y-94809263D01*
X135890000Y-94700030D01*
X135340849Y-94809263D01*
X134875302Y-95120332D01*
X134620000Y-95502418D01*
X134364698Y-95120332D01*
X133899151Y-94809263D01*
X133350000Y-94700030D01*
X132800849Y-94809263D01*
X132335302Y-95120332D01*
X132080000Y-95502418D01*
X131824698Y-95120332D01*
X131359151Y-94809263D01*
X130810000Y-94700030D01*
X130260849Y-94809263D01*
X129795302Y-95120332D01*
X129540000Y-95502418D01*
X129284698Y-95120332D01*
X128819151Y-94809263D01*
X128270000Y-94700030D01*
X127720849Y-94809263D01*
X127255302Y-95120332D01*
X127000000Y-95502418D01*
X126744698Y-95120332D01*
X126279151Y-94809263D01*
X125730000Y-94700030D01*
X125180849Y-94809263D01*
X124715302Y-95120332D01*
X124460000Y-95502418D01*
X124204698Y-95120332D01*
X123739151Y-94809263D01*
X123190000Y-94700030D01*
X122640849Y-94809263D01*
X122175302Y-95120332D01*
X121864233Y-95585879D01*
X121755000Y-96135030D01*
X101727000Y-96135030D01*
X101727000Y-94189787D01*
X159219392Y-94189787D01*
X160020000Y-94990395D01*
X160820608Y-94189787D01*
X160751143Y-93947603D01*
X160227698Y-93760856D01*
X159672632Y-93788638D01*
X159288857Y-93947603D01*
X159219392Y-94189787D01*
X101727000Y-94189787D01*
X101727000Y-89027000D01*
X121755000Y-89027000D01*
X121755000Y-89377000D01*
X121912834Y-89916483D01*
X122265104Y-90354500D01*
X122758181Y-90624367D01*
X122840961Y-90641904D01*
X123063000Y-90519915D01*
X123063000Y-89027000D01*
X121755000Y-89027000D01*
X101727000Y-89027000D01*
X101727000Y-88423000D01*
X121755000Y-88423000D01*
X121755000Y-88773000D01*
X123063000Y-88773000D01*
X123063000Y-87280085D01*
X123317000Y-87280085D01*
X123317000Y-88773000D01*
X123337000Y-88773000D01*
X123337000Y-89027000D01*
X123317000Y-89027000D01*
X123317000Y-90519915D01*
X123539039Y-90641904D01*
X123621819Y-90624367D01*
X124114896Y-90354500D01*
X124462851Y-89921849D01*
X124715302Y-90299668D01*
X125180849Y-90610737D01*
X125730000Y-90719970D01*
X126279151Y-90610737D01*
X126744698Y-90299668D01*
X127000000Y-89917582D01*
X127255302Y-90299668D01*
X127720849Y-90610737D01*
X128270000Y-90719970D01*
X128819151Y-90610737D01*
X129284698Y-90299668D01*
X129540000Y-89917582D01*
X129795302Y-90299668D01*
X130260849Y-90610737D01*
X130810000Y-90719970D01*
X131359151Y-90610737D01*
X131824698Y-90299668D01*
X132080000Y-89917582D01*
X132335302Y-90299668D01*
X132800849Y-90610737D01*
X133350000Y-90719970D01*
X133899151Y-90610737D01*
X134364698Y-90299668D01*
X134620000Y-89917582D01*
X134875302Y-90299668D01*
X135340849Y-90610737D01*
X135890000Y-90719970D01*
X136439151Y-90610737D01*
X136904698Y-90299668D01*
X137160000Y-89917582D01*
X137415302Y-90299668D01*
X137880849Y-90610737D01*
X138430000Y-90719970D01*
X138979151Y-90610737D01*
X139444698Y-90299668D01*
X139755767Y-89834121D01*
X139865000Y-89284970D01*
X139865000Y-88515030D01*
X139755767Y-87965879D01*
X139747626Y-87953694D01*
X143145226Y-87953694D01*
X143393538Y-88554655D01*
X143852927Y-89014846D01*
X144453453Y-89264206D01*
X145103694Y-89264774D01*
X145704655Y-89016462D01*
X146164846Y-88557073D01*
X146414206Y-87956547D01*
X146414774Y-87306306D01*
X146166462Y-86705345D01*
X145707073Y-86245154D01*
X145106547Y-85995794D01*
X144456306Y-85995226D01*
X143855345Y-86243538D01*
X143395154Y-86702927D01*
X143145794Y-87303453D01*
X143145226Y-87953694D01*
X139747626Y-87953694D01*
X139444698Y-87500332D01*
X138979151Y-87189263D01*
X138430000Y-87080030D01*
X137880849Y-87189263D01*
X137415302Y-87500332D01*
X137160000Y-87882418D01*
X136904698Y-87500332D01*
X136439151Y-87189263D01*
X135890000Y-87080030D01*
X135340849Y-87189263D01*
X134875302Y-87500332D01*
X134620000Y-87882418D01*
X134364698Y-87500332D01*
X133899151Y-87189263D01*
X133350000Y-87080030D01*
X132800849Y-87189263D01*
X132335302Y-87500332D01*
X132080000Y-87882418D01*
X131824698Y-87500332D01*
X131359151Y-87189263D01*
X130810000Y-87080030D01*
X130260849Y-87189263D01*
X129795302Y-87500332D01*
X129540000Y-87882418D01*
X129284698Y-87500332D01*
X128819151Y-87189263D01*
X128270000Y-87080030D01*
X127720849Y-87189263D01*
X127255302Y-87500332D01*
X127000000Y-87882418D01*
X126744698Y-87500332D01*
X126279151Y-87189263D01*
X125730000Y-87080030D01*
X125180849Y-87189263D01*
X124715302Y-87500332D01*
X124462851Y-87878151D01*
X124114896Y-87445500D01*
X123621819Y-87175633D01*
X123539039Y-87158096D01*
X123317000Y-87280085D01*
X123063000Y-87280085D01*
X122840961Y-87158096D01*
X122758181Y-87175633D01*
X122265104Y-87445500D01*
X121912834Y-87883517D01*
X121755000Y-88423000D01*
X101727000Y-88423000D01*
X101727000Y-85880213D01*
X124929392Y-85880213D01*
X124998857Y-86122397D01*
X125522302Y-86309144D01*
X126077368Y-86281362D01*
X126461143Y-86122397D01*
X126530608Y-85880213D01*
X125730000Y-85079605D01*
X124929392Y-85880213D01*
X101727000Y-85880213D01*
X101727000Y-84692302D01*
X124320856Y-84692302D01*
X124348638Y-85247368D01*
X124507603Y-85631143D01*
X124749787Y-85700608D01*
X125550395Y-84900000D01*
X125909605Y-84900000D01*
X126710213Y-85700608D01*
X126952397Y-85631143D01*
X127018213Y-85446661D01*
X158622758Y-85446661D01*
X158834990Y-85960303D01*
X159227630Y-86353629D01*
X159740900Y-86566757D01*
X160296661Y-86567242D01*
X160810303Y-86355010D01*
X161203629Y-85962370D01*
X161416757Y-85449100D01*
X161417242Y-84893339D01*
X161205010Y-84379697D01*
X160812370Y-83986371D01*
X160299100Y-83773243D01*
X159743339Y-83772758D01*
X159229697Y-83984990D01*
X158836371Y-84377630D01*
X158623243Y-84890900D01*
X158622758Y-85446661D01*
X127018213Y-85446661D01*
X127139144Y-85107698D01*
X127111362Y-84552632D01*
X126952397Y-84168857D01*
X126710213Y-84099392D01*
X125909605Y-84900000D01*
X125550395Y-84900000D01*
X124749787Y-84099392D01*
X124507603Y-84168857D01*
X124320856Y-84692302D01*
X101727000Y-84692302D01*
X101727000Y-83919787D01*
X124929392Y-83919787D01*
X125730000Y-84720395D01*
X126530608Y-83919787D01*
X126461143Y-83677603D01*
X125937698Y-83490856D01*
X125382632Y-83518638D01*
X124998857Y-83677603D01*
X124929392Y-83919787D01*
X101727000Y-83919787D01*
X101727000Y-77597000D01*
X182753000Y-77597000D01*
X182753000Y-131953000D01*
X182753000Y-131953000D01*
G37*
X182753000Y-131953000D02*
X101727000Y-131953000D01*
X101727000Y-129382532D01*
X104287073Y-129382532D01*
X104385736Y-129649387D01*
X104995461Y-129875908D01*
X105645460Y-129851856D01*
X106134264Y-129649387D01*
X106232927Y-129382532D01*
X117287073Y-129382532D01*
X117385736Y-129649387D01*
X117995461Y-129875908D01*
X118645460Y-129851856D01*
X119134264Y-129649387D01*
X119232927Y-129382532D01*
X124607073Y-129382532D01*
X124705736Y-129649387D01*
X125315461Y-129875908D01*
X125965460Y-129851856D01*
X126454264Y-129649387D01*
X126552927Y-129382532D01*
X137607073Y-129382532D01*
X137705736Y-129649387D01*
X138315461Y-129875908D01*
X138965460Y-129851856D01*
X139454264Y-129649387D01*
X139552927Y-129382532D01*
X144927073Y-129382532D01*
X145025736Y-129649387D01*
X145635461Y-129875908D01*
X146285460Y-129851856D01*
X146774264Y-129649387D01*
X146872927Y-129382532D01*
X157927073Y-129382532D01*
X158025736Y-129649387D01*
X158635461Y-129875908D01*
X159285460Y-129851856D01*
X159774264Y-129649387D01*
X159872927Y-129382532D01*
X165247073Y-129382532D01*
X165345736Y-129649387D01*
X165955461Y-129875908D01*
X166605460Y-129851856D01*
X167094264Y-129649387D01*
X167192927Y-129382532D01*
X178247073Y-129382532D01*
X178345736Y-129649387D01*
X178955461Y-129875908D01*
X179605460Y-129851856D01*
X180094264Y-129649387D01*
X180192927Y-129382532D01*
X179220000Y-128409605D01*
X178247073Y-129382532D01*
X167192927Y-129382532D01*
X166220000Y-128409605D01*
X165247073Y-129382532D01*
X159872927Y-129382532D01*
X158900000Y-128409605D01*
X157927073Y-129382532D01*
X146872927Y-129382532D01*
X145900000Y-128409605D01*
X144927073Y-129382532D01*
X139552927Y-129382532D01*
X138580000Y-128409605D01*
X137607073Y-129382532D01*
X126552927Y-129382532D01*
X125580000Y-128409605D01*
X124607073Y-129382532D01*
X119232927Y-129382532D01*
X118260000Y-128409605D01*
X117287073Y-129382532D01*
X106232927Y-129382532D01*
X105260000Y-128409605D01*
X104287073Y-129382532D01*
X101727000Y-129382532D01*
X101727000Y-127965461D01*
X103614092Y-127965461D01*
X103638144Y-128615460D01*
X103840613Y-129104264D01*
X104107468Y-129202927D01*
X105080395Y-128230000D01*
X105439605Y-128230000D01*
X106412532Y-129202927D01*
X106679387Y-129104264D01*
X106905908Y-128494539D01*
X106886331Y-127965461D01*
X116614092Y-127965461D01*
X116638144Y-128615460D01*
X116840613Y-129104264D01*
X117107468Y-129202927D01*
X118080395Y-128230000D01*
X118439605Y-128230000D01*
X119412532Y-129202927D01*
X119679387Y-129104264D01*
X119905908Y-128494539D01*
X119886331Y-127965461D01*
X123934092Y-127965461D01*
X123958144Y-128615460D01*
X124160613Y-129104264D01*
X124427468Y-129202927D01*
X125400395Y-128230000D01*
X125759605Y-128230000D01*
X126732532Y-129202927D01*
X126999387Y-129104264D01*
X127225908Y-128494539D01*
X127206331Y-127965461D01*
X136934092Y-127965461D01*
X136958144Y-128615460D01*
X137160613Y-129104264D01*
X137427468Y-129202927D01*
X138400395Y-128230000D01*
X138759605Y-128230000D01*
X139732532Y-129202927D01*
X139999387Y-129104264D01*
X140225908Y-128494539D01*
X140206331Y-127965461D01*
X144254092Y-127965461D01*
X144278144Y-128615460D01*
X144480613Y-129104264D01*
X144747468Y-129202927D01*
X145720395Y-128230000D01*
X146079605Y-128230000D01*
X147052532Y-129202927D01*
X147319387Y-129104264D01*
X147545908Y-128494539D01*
X147526331Y-127965461D01*
X157254092Y-127965461D01*
X157278144Y-128615460D01*
X157480613Y-129104264D01*
X157747468Y-129202927D01*
X158720395Y-128230000D01*
X159079605Y-128230000D01*
X160052532Y-129202927D01*
X160319387Y-129104264D01*
X160545908Y-128494539D01*
X160526331Y-127965461D01*
X164574092Y-127965461D01*
X164598144Y-128615460D01*
X164800613Y-129104264D01*
X165067468Y-129202927D01*
X166040395Y-128230000D01*
X166399605Y-128230000D01*
X167372532Y-129202927D01*
X167639387Y-129104264D01*
X167865908Y-128494539D01*
X167846331Y-127965461D01*
X177574092Y-127965461D01*
X177598144Y-128615460D01*
X177800613Y-129104264D01*
X178067468Y-129202927D01*
X179040395Y-128230000D01*
X179399605Y-128230000D01*
X180372532Y-129202927D01*
X180639387Y-129104264D01*
X180865908Y-128494539D01*
X180841856Y-127844540D01*
X180639387Y-127355736D01*
X180372532Y-127257073D01*
X179399605Y-128230000D01*
X179040395Y-128230000D01*
X178067468Y-127257073D01*
X177800613Y-127355736D01*
X177574092Y-127965461D01*
X167846331Y-127965461D01*
X167841856Y-127844540D01*
X167639387Y-127355736D01*
X167372532Y-127257073D01*
X166399605Y-128230000D01*
X166040395Y-128230000D01*
X165067468Y-127257073D01*
X164800613Y-127355736D01*
X164574092Y-127965461D01*
X160526331Y-127965461D01*
X160521856Y-127844540D01*
X160319387Y-127355736D01*
X160052532Y-127257073D01*
X159079605Y-128230000D01*
X158720395Y-128230000D01*
X157747468Y-127257073D01*
X157480613Y-127355736D01*
X157254092Y-127965461D01*
X147526331Y-127965461D01*
X147521856Y-127844540D01*
X147319387Y-127355736D01*
X147052532Y-127257073D01*
X146079605Y-128230000D01*
X145720395Y-128230000D01*
X144747468Y-127257073D01*
X144480613Y-127355736D01*
X144254092Y-127965461D01*
X140206331Y-127965461D01*
X140201856Y-127844540D01*
X139999387Y-127355736D01*
X139732532Y-127257073D01*
X138759605Y-128230000D01*
X138400395Y-128230000D01*
X137427468Y-127257073D01*
X137160613Y-127355736D01*
X136934092Y-127965461D01*
X127206331Y-127965461D01*
X127201856Y-127844540D01*
X126999387Y-127355736D01*
X126732532Y-127257073D01*
X125759605Y-128230000D01*
X125400395Y-128230000D01*
X124427468Y-127257073D01*
X124160613Y-127355736D01*
X123934092Y-127965461D01*
X119886331Y-127965461D01*
X119881856Y-127844540D01*
X119679387Y-127355736D01*
X119412532Y-127257073D01*
X118439605Y-128230000D01*
X118080395Y-128230000D01*
X117107468Y-127257073D01*
X116840613Y-127355736D01*
X116614092Y-127965461D01*
X106886331Y-127965461D01*
X106881856Y-127844540D01*
X106679387Y-127355736D01*
X106412532Y-127257073D01*
X105439605Y-128230000D01*
X105080395Y-128230000D01*
X104107468Y-127257073D01*
X103840613Y-127355736D01*
X103614092Y-127965461D01*
X101727000Y-127965461D01*
X101727000Y-127077468D01*
X104287073Y-127077468D01*
X105260000Y-128050395D01*
X106232927Y-127077468D01*
X117287073Y-127077468D01*
X118260000Y-128050395D01*
X119232927Y-127077468D01*
X124607073Y-127077468D01*
X125580000Y-128050395D01*
X126552927Y-127077468D01*
X137607073Y-127077468D01*
X138580000Y-128050395D01*
X139552927Y-127077468D01*
X144927073Y-127077468D01*
X145900000Y-128050395D01*
X146872927Y-127077468D01*
X157927073Y-127077468D01*
X158900000Y-128050395D01*
X159872927Y-127077468D01*
X165247073Y-127077468D01*
X166220000Y-128050395D01*
X167192927Y-127077468D01*
X178247073Y-127077468D01*
X179220000Y-128050395D01*
X180192927Y-127077468D01*
X180094264Y-126810613D01*
X179484539Y-126584092D01*
X178834540Y-126608144D01*
X178345736Y-126810613D01*
X178247073Y-127077468D01*
X167192927Y-127077468D01*
X167094264Y-126810613D01*
X166484539Y-126584092D01*
X165834540Y-126608144D01*
X165345736Y-126810613D01*
X165247073Y-127077468D01*
X159872927Y-127077468D01*
X159774264Y-126810613D01*
X159164539Y-126584092D01*
X158514540Y-126608144D01*
X158025736Y-126810613D01*
X157927073Y-127077468D01*
X146872927Y-127077468D01*
X146774264Y-126810613D01*
X146164539Y-126584092D01*
X145514540Y-126608144D01*
X145025736Y-126810613D01*
X144927073Y-127077468D01*
X139552927Y-127077468D01*
X139454264Y-126810613D01*
X138844539Y-126584092D01*
X138194540Y-126608144D01*
X137705736Y-126810613D01*
X137607073Y-127077468D01*
X126552927Y-127077468D01*
X126454264Y-126810613D01*
X125844539Y-126584092D01*
X125194540Y-126608144D01*
X124705736Y-126810613D01*
X124607073Y-127077468D01*
X119232927Y-127077468D01*
X119134264Y-126810613D01*
X118524539Y-126584092D01*
X117874540Y-126608144D01*
X117385736Y-126810613D01*
X117287073Y-127077468D01*
X106232927Y-127077468D01*
X106134264Y-126810613D01*
X105524539Y-126584092D01*
X104874540Y-126608144D01*
X104385736Y-126810613D01*
X104287073Y-127077468D01*
X101727000Y-127077468D01*
X101727000Y-123553795D01*
X103624716Y-123553795D01*
X103873106Y-124154943D01*
X104332637Y-124615278D01*
X104933352Y-124864716D01*
X105583795Y-124865284D01*
X106184943Y-124616894D01*
X106645278Y-124157363D01*
X106894716Y-123556648D01*
X106894718Y-123553795D01*
X116624716Y-123553795D01*
X116873106Y-124154943D01*
X117332637Y-124615278D01*
X117933352Y-124864716D01*
X118583795Y-124865284D01*
X119184943Y-124616894D01*
X119645278Y-124157363D01*
X119894716Y-123556648D01*
X119894718Y-123553795D01*
X123944716Y-123553795D01*
X124193106Y-124154943D01*
X124652637Y-124615278D01*
X125253352Y-124864716D01*
X125903795Y-124865284D01*
X126504943Y-124616894D01*
X126965278Y-124157363D01*
X127214716Y-123556648D01*
X127214718Y-123553795D01*
X136944716Y-123553795D01*
X137193106Y-124154943D01*
X137652637Y-124615278D01*
X138253352Y-124864716D01*
X138903795Y-124865284D01*
X139504943Y-124616894D01*
X139965278Y-124157363D01*
X140214716Y-123556648D01*
X140214718Y-123553795D01*
X144264716Y-123553795D01*
X144513106Y-124154943D01*
X144972637Y-124615278D01*
X145573352Y-124864716D01*
X146223795Y-124865284D01*
X146824943Y-124616894D01*
X147285278Y-124157363D01*
X147534716Y-123556648D01*
X147534718Y-123553795D01*
X157264716Y-123553795D01*
X157513106Y-124154943D01*
X157972637Y-124615278D01*
X158573352Y-124864716D01*
X159223795Y-124865284D01*
X159824943Y-124616894D01*
X160285278Y-124157363D01*
X160534716Y-123556648D01*
X160534718Y-123553795D01*
X164584716Y-123553795D01*
X164833106Y-124154943D01*
X165292637Y-124615278D01*
X165893352Y-124864716D01*
X166543795Y-124865284D01*
X167144943Y-124616894D01*
X167605278Y-124157363D01*
X167854716Y-123556648D01*
X167854718Y-123553795D01*
X177584716Y-123553795D01*
X177833106Y-124154943D01*
X178292637Y-124615278D01*
X178893352Y-124864716D01*
X179543795Y-124865284D01*
X180144943Y-124616894D01*
X180605278Y-124157363D01*
X180854716Y-123556648D01*
X180855284Y-122906205D01*
X180606894Y-122305057D01*
X180147363Y-121844722D01*
X179546648Y-121595284D01*
X178896205Y-121594716D01*
X178295057Y-121843106D01*
X177834722Y-122302637D01*
X177585284Y-122903352D01*
X177584716Y-123553795D01*
X167854718Y-123553795D01*
X167855284Y-122906205D01*
X167606894Y-122305057D01*
X167147363Y-121844722D01*
X166546648Y-121595284D01*
X165896205Y-121594716D01*
X165295057Y-121843106D01*
X164834722Y-122302637D01*
X164585284Y-122903352D01*
X164584716Y-123553795D01*
X160534718Y-123553795D01*
X160535284Y-122906205D01*
X160286894Y-122305057D01*
X159827363Y-121844722D01*
X159226648Y-121595284D01*
X158576205Y-121594716D01*
X157975057Y-121843106D01*
X157514722Y-122302637D01*
X157265284Y-122903352D01*
X157264716Y-123553795D01*
X147534718Y-123553795D01*
X147535284Y-122906205D01*
X147286894Y-122305057D01*
X146827363Y-121844722D01*
X146226648Y-121595284D01*
X145576205Y-121594716D01*
X144975057Y-121843106D01*
X144514722Y-122302637D01*
X144265284Y-122903352D01*
X144264716Y-123553795D01*
X140214718Y-123553795D01*
X140215284Y-122906205D01*
X139966894Y-122305057D01*
X139507363Y-121844722D01*
X138906648Y-121595284D01*
X138256205Y-121594716D01*
X137655057Y-121843106D01*
X137194722Y-122302637D01*
X136945284Y-122903352D01*
X136944716Y-123553795D01*
X127214718Y-123553795D01*
X127215284Y-122906205D01*
X126966894Y-122305057D01*
X126507363Y-121844722D01*
X125906648Y-121595284D01*
X125256205Y-121594716D01*
X124655057Y-121843106D01*
X124194722Y-122302637D01*
X123945284Y-122903352D01*
X123944716Y-123553795D01*
X119894718Y-123553795D01*
X119895284Y-122906205D01*
X119646894Y-122305057D01*
X119187363Y-121844722D01*
X118586648Y-121595284D01*
X117936205Y-121594716D01*
X117335057Y-121843106D01*
X116874722Y-122302637D01*
X116625284Y-122903352D01*
X116624716Y-123553795D01*
X106894718Y-123553795D01*
X106895284Y-122906205D01*
X106646894Y-122305057D01*
X106187363Y-121844722D01*
X105586648Y-121595284D01*
X104936205Y-121594716D01*
X104335057Y-121843106D01*
X103874722Y-122302637D01*
X103625284Y-122903352D01*
X103624716Y-123553795D01*
X101727000Y-123553795D01*
X101727000Y-117163694D01*
X116475226Y-117163694D01*
X116723538Y-117764655D01*
X117182927Y-118224846D01*
X117783453Y-118474206D01*
X118433694Y-118474774D01*
X119034655Y-118226462D01*
X119494846Y-117767073D01*
X119744206Y-117166547D01*
X119744774Y-116516306D01*
X119496462Y-115915345D01*
X119474849Y-115893694D01*
X138065226Y-115893694D01*
X138313538Y-116494655D01*
X138772927Y-116954846D01*
X139373453Y-117204206D01*
X140023694Y-117204774D01*
X140624655Y-116956462D01*
X141084846Y-116497073D01*
X141334206Y-115896547D01*
X141334208Y-115893694D01*
X144415226Y-115893694D01*
X144663538Y-116494655D01*
X145122927Y-116954846D01*
X145723453Y-117204206D01*
X146373694Y-117204774D01*
X146974655Y-116956462D01*
X147434846Y-116497073D01*
X147684206Y-115896547D01*
X147684208Y-115893694D01*
X166005226Y-115893694D01*
X166253538Y-116494655D01*
X166712927Y-116954846D01*
X167313453Y-117204206D01*
X167963694Y-117204774D01*
X168564655Y-116956462D01*
X169024846Y-116497073D01*
X169274206Y-115896547D01*
X169274774Y-115246306D01*
X169026462Y-114645345D01*
X168567073Y-114185154D01*
X167966547Y-113935794D01*
X167316306Y-113935226D01*
X166715345Y-114183538D01*
X166255154Y-114642927D01*
X166005794Y-115243453D01*
X166005226Y-115893694D01*
X147684208Y-115893694D01*
X147684774Y-115246306D01*
X147436462Y-114645345D01*
X146977073Y-114185154D01*
X146376547Y-113935794D01*
X145726306Y-113935226D01*
X145125345Y-114183538D01*
X144665154Y-114642927D01*
X144415794Y-115243453D01*
X144415226Y-115893694D01*
X141334208Y-115893694D01*
X141334774Y-115246306D01*
X141086462Y-114645345D01*
X140627073Y-114185154D01*
X140026547Y-113935794D01*
X139376306Y-113935226D01*
X138775345Y-114183538D01*
X138315154Y-114642927D01*
X138065794Y-115243453D01*
X138065226Y-115893694D01*
X119474849Y-115893694D01*
X119037073Y-115455154D01*
X118436547Y-115205794D01*
X117786306Y-115205226D01*
X117185345Y-115453538D01*
X116725154Y-115912927D01*
X116475794Y-116513453D01*
X116475226Y-117163694D01*
X101727000Y-117163694D01*
X101727000Y-112045750D01*
X107685000Y-112045750D01*
X107685000Y-112786310D01*
X107781673Y-113019699D01*
X107960302Y-113198327D01*
X108193691Y-113295000D01*
X108934250Y-113295000D01*
X109093000Y-113136250D01*
X109093000Y-111887000D01*
X107843750Y-111887000D01*
X107685000Y-112045750D01*
X101727000Y-112045750D01*
X101727000Y-110733690D01*
X107685000Y-110733690D01*
X107685000Y-111474250D01*
X107843750Y-111633000D01*
X109093000Y-111633000D01*
X109093000Y-110383750D01*
X109347000Y-110383750D01*
X109347000Y-111633000D01*
X109367000Y-111633000D01*
X109367000Y-111887000D01*
X109347000Y-111887000D01*
X109347000Y-113136250D01*
X109505750Y-113295000D01*
X110246309Y-113295000D01*
X110479698Y-113198327D01*
X110658327Y-113019699D01*
X110714119Y-112885006D01*
X110889357Y-113060551D01*
X111453330Y-113294733D01*
X112063991Y-113295265D01*
X112628371Y-113062068D01*
X113060551Y-112630643D01*
X113294733Y-112066670D01*
X113294751Y-112045750D01*
X129275000Y-112045750D01*
X129275000Y-112786310D01*
X129371673Y-113019699D01*
X129550302Y-113198327D01*
X129783691Y-113295000D01*
X130524250Y-113295000D01*
X130683000Y-113136250D01*
X130683000Y-111887000D01*
X129433750Y-111887000D01*
X129275000Y-112045750D01*
X113294751Y-112045750D01*
X113295265Y-111456009D01*
X113062068Y-110891629D01*
X112904405Y-110733690D01*
X129275000Y-110733690D01*
X129275000Y-111474250D01*
X129433750Y-111633000D01*
X130683000Y-111633000D01*
X130683000Y-110383750D01*
X130937000Y-110383750D01*
X130937000Y-111633000D01*
X130957000Y-111633000D01*
X130957000Y-111887000D01*
X130937000Y-111887000D01*
X130937000Y-113136250D01*
X131095750Y-113295000D01*
X131836309Y-113295000D01*
X132069698Y-113198327D01*
X132248327Y-113019699D01*
X132304119Y-112885006D01*
X132479357Y-113060551D01*
X133043330Y-113294733D01*
X133653991Y-113295265D01*
X134218371Y-113062068D01*
X134650551Y-112630643D01*
X134884733Y-112066670D01*
X134884751Y-112045750D01*
X150865000Y-112045750D01*
X150865000Y-112786310D01*
X150961673Y-113019699D01*
X151140302Y-113198327D01*
X151373691Y-113295000D01*
X152114250Y-113295000D01*
X152273000Y-113136250D01*
X152273000Y-111887000D01*
X151023750Y-111887000D01*
X150865000Y-112045750D01*
X134884751Y-112045750D01*
X134885265Y-111456009D01*
X134652068Y-110891629D01*
X134494405Y-110733690D01*
X150865000Y-110733690D01*
X150865000Y-111474250D01*
X151023750Y-111633000D01*
X152273000Y-111633000D01*
X152273000Y-110383750D01*
X152527000Y-110383750D01*
X152527000Y-111633000D01*
X152547000Y-111633000D01*
X152547000Y-111887000D01*
X152527000Y-111887000D01*
X152527000Y-113136250D01*
X152685750Y-113295000D01*
X153426309Y-113295000D01*
X153659698Y-113198327D01*
X153838327Y-113019699D01*
X153894119Y-112885006D01*
X154069357Y-113060551D01*
X154633330Y-113294733D01*
X155243991Y-113295265D01*
X155808371Y-113062068D01*
X156240551Y-112630643D01*
X156474733Y-112066670D01*
X156474751Y-112045750D01*
X172455000Y-112045750D01*
X172455000Y-112786310D01*
X172551673Y-113019699D01*
X172730302Y-113198327D01*
X172963691Y-113295000D01*
X173704250Y-113295000D01*
X173863000Y-113136250D01*
X173863000Y-111887000D01*
X172613750Y-111887000D01*
X172455000Y-112045750D01*
X156474751Y-112045750D01*
X156475265Y-111456009D01*
X156242068Y-110891629D01*
X156084405Y-110733690D01*
X172455000Y-110733690D01*
X172455000Y-111474250D01*
X172613750Y-111633000D01*
X173863000Y-111633000D01*
X173863000Y-110383750D01*
X174117000Y-110383750D01*
X174117000Y-111633000D01*
X174137000Y-111633000D01*
X174137000Y-111887000D01*
X174117000Y-111887000D01*
X174117000Y-113136250D01*
X174275750Y-113295000D01*
X175016309Y-113295000D01*
X175249698Y-113198327D01*
X175428327Y-113019699D01*
X175484119Y-112885006D01*
X175659357Y-113060551D01*
X176223330Y-113294733D01*
X176833991Y-113295265D01*
X177398371Y-113062068D01*
X177830551Y-112630643D01*
X178064733Y-112066670D01*
X178065265Y-111456009D01*
X177832068Y-110891629D01*
X177400643Y-110459449D01*
X176836670Y-110225267D01*
X176226009Y-110224735D01*
X175661629Y-110457932D01*
X175484159Y-110635092D01*
X175428327Y-110500301D01*
X175249698Y-110321673D01*
X175016309Y-110225000D01*
X174275750Y-110225000D01*
X174117000Y-110383750D01*
X173863000Y-110383750D01*
X173704250Y-110225000D01*
X172963691Y-110225000D01*
X172730302Y-110321673D01*
X172551673Y-110500301D01*
X172455000Y-110733690D01*
X156084405Y-110733690D01*
X155810643Y-110459449D01*
X155246670Y-110225267D01*
X154636009Y-110224735D01*
X154071629Y-110457932D01*
X153894159Y-110635092D01*
X153838327Y-110500301D01*
X153659698Y-110321673D01*
X153426309Y-110225000D01*
X152685750Y-110225000D01*
X152527000Y-110383750D01*
X152273000Y-110383750D01*
X152114250Y-110225000D01*
X151373691Y-110225000D01*
X151140302Y-110321673D01*
X150961673Y-110500301D01*
X150865000Y-110733690D01*
X134494405Y-110733690D01*
X134220643Y-110459449D01*
X133656670Y-110225267D01*
X133046009Y-110224735D01*
X132481629Y-110457932D01*
X132304159Y-110635092D01*
X132248327Y-110500301D01*
X132069698Y-110321673D01*
X131836309Y-110225000D01*
X131095750Y-110225000D01*
X130937000Y-110383750D01*
X130683000Y-110383750D01*
X130524250Y-110225000D01*
X129783691Y-110225000D01*
X129550302Y-110321673D01*
X129371673Y-110500301D01*
X129275000Y-110733690D01*
X112904405Y-110733690D01*
X112630643Y-110459449D01*
X112066670Y-110225267D01*
X111456009Y-110224735D01*
X110891629Y-110457932D01*
X110714159Y-110635092D01*
X110658327Y-110500301D01*
X110479698Y-110321673D01*
X110246309Y-110225000D01*
X109505750Y-110225000D01*
X109347000Y-110383750D01*
X109093000Y-110383750D01*
X108934250Y-110225000D01*
X108193691Y-110225000D01*
X107960302Y-110321673D01*
X107781673Y-110500301D01*
X107685000Y-110733690D01*
X101727000Y-110733690D01*
X101727000Y-107003694D01*
X116475226Y-107003694D01*
X116723538Y-107604655D01*
X117182927Y-108064846D01*
X117783453Y-108314206D01*
X118433694Y-108314774D01*
X119034655Y-108066462D01*
X119494846Y-107607073D01*
X119744206Y-107006547D01*
X119744774Y-106356306D01*
X119513534Y-105796661D01*
X124332758Y-105796661D01*
X124544990Y-106310303D01*
X124937630Y-106703629D01*
X125450900Y-106916757D01*
X126006661Y-106917242D01*
X126520303Y-106705010D01*
X126913629Y-106312370D01*
X127126757Y-105799100D01*
X127126814Y-105733694D01*
X138065226Y-105733694D01*
X138313538Y-106334655D01*
X138772927Y-106794846D01*
X139373453Y-107044206D01*
X140023694Y-107044774D01*
X140624655Y-106796462D01*
X141084846Y-106337073D01*
X141334206Y-105736547D01*
X141334208Y-105733694D01*
X144415226Y-105733694D01*
X144663538Y-106334655D01*
X145122927Y-106794846D01*
X145723453Y-107044206D01*
X146373694Y-107044774D01*
X146974655Y-106796462D01*
X147434846Y-106337073D01*
X147684206Y-105736547D01*
X147684208Y-105733694D01*
X166005226Y-105733694D01*
X166253538Y-106334655D01*
X166712927Y-106794846D01*
X167313453Y-107044206D01*
X167963694Y-107044774D01*
X168564655Y-106796462D01*
X169024846Y-106337073D01*
X169274206Y-105736547D01*
X169274774Y-105086306D01*
X169026462Y-104485345D01*
X168567073Y-104025154D01*
X167966547Y-103775794D01*
X167316306Y-103775226D01*
X166715345Y-104023538D01*
X166255154Y-104482927D01*
X166005794Y-105083453D01*
X166005226Y-105733694D01*
X147684208Y-105733694D01*
X147684774Y-105086306D01*
X147436462Y-104485345D01*
X147276564Y-104325167D01*
X152734838Y-104325167D01*
X152876883Y-104668943D01*
X153139673Y-104932192D01*
X153483201Y-105074838D01*
X153855167Y-105075162D01*
X154198943Y-104933117D01*
X154462192Y-104670327D01*
X154604838Y-104326799D01*
X154605162Y-103954833D01*
X154463117Y-103611057D01*
X154200327Y-103347808D01*
X153856799Y-103205162D01*
X153484833Y-103204838D01*
X153141057Y-103346883D01*
X152877808Y-103609673D01*
X152735162Y-103953201D01*
X152734838Y-104325167D01*
X147276564Y-104325167D01*
X146977073Y-104025154D01*
X146376547Y-103775794D01*
X145726306Y-103775226D01*
X145125345Y-104023538D01*
X144665154Y-104482927D01*
X144415794Y-105083453D01*
X144415226Y-105733694D01*
X141334208Y-105733694D01*
X141334774Y-105086306D01*
X141086462Y-104485345D01*
X140627073Y-104025154D01*
X140026547Y-103775794D01*
X139376306Y-103775226D01*
X138775345Y-104023538D01*
X138315154Y-104482927D01*
X138065794Y-105083453D01*
X138065226Y-105733694D01*
X127126814Y-105733694D01*
X127127242Y-105243339D01*
X126915010Y-104729697D01*
X126522370Y-104336371D01*
X126009100Y-104123243D01*
X125453339Y-104122758D01*
X124939697Y-104334990D01*
X124546371Y-104727630D01*
X124333243Y-105240900D01*
X124332758Y-105796661D01*
X119513534Y-105796661D01*
X119496462Y-105755345D01*
X119037073Y-105295154D01*
X118436547Y-105045794D01*
X117786306Y-105045226D01*
X117185345Y-105293538D01*
X116725154Y-105752927D01*
X116475794Y-106353453D01*
X116475226Y-107003694D01*
X101727000Y-107003694D01*
X101727000Y-96135030D01*
X121755000Y-96135030D01*
X121755000Y-96904970D01*
X121864233Y-97454121D01*
X122175302Y-97919668D01*
X122640849Y-98230737D01*
X123190000Y-98339970D01*
X123739151Y-98230737D01*
X124204698Y-97919668D01*
X124460000Y-97537582D01*
X124715302Y-97919668D01*
X125180849Y-98230737D01*
X125730000Y-98339970D01*
X126279151Y-98230737D01*
X126744698Y-97919668D01*
X127000000Y-97537582D01*
X127255302Y-97919668D01*
X127720849Y-98230737D01*
X128270000Y-98339970D01*
X128819151Y-98230737D01*
X129284698Y-97919668D01*
X129540000Y-97537582D01*
X129795302Y-97919668D01*
X130260849Y-98230737D01*
X130810000Y-98339970D01*
X131359151Y-98230737D01*
X131824698Y-97919668D01*
X132080000Y-97537582D01*
X132335302Y-97919668D01*
X132800849Y-98230737D01*
X133350000Y-98339970D01*
X133899151Y-98230737D01*
X134364698Y-97919668D01*
X134620000Y-97537582D01*
X134875302Y-97919668D01*
X135340849Y-98230737D01*
X135890000Y-98339970D01*
X136439151Y-98230737D01*
X136904698Y-97919668D01*
X137160000Y-97537582D01*
X137415302Y-97919668D01*
X137880849Y-98230737D01*
X138430000Y-98339970D01*
X138979151Y-98230737D01*
X139154317Y-98113694D01*
X143145226Y-98113694D01*
X143393538Y-98714655D01*
X143852927Y-99174846D01*
X144453453Y-99424206D01*
X145103694Y-99424774D01*
X145704655Y-99176462D01*
X146164846Y-98717073D01*
X146414206Y-98116547D01*
X146414774Y-97466306D01*
X146166462Y-96865345D01*
X145707073Y-96405154D01*
X145106547Y-96155794D01*
X144456306Y-96155226D01*
X143855345Y-96403538D01*
X143395154Y-96862927D01*
X143145794Y-97463453D01*
X143145226Y-98113694D01*
X139154317Y-98113694D01*
X139444698Y-97919668D01*
X139755767Y-97454121D01*
X139865000Y-96904970D01*
X139865000Y-96150213D01*
X159219392Y-96150213D01*
X159288857Y-96392397D01*
X159812302Y-96579144D01*
X160367368Y-96551362D01*
X160751143Y-96392397D01*
X160820608Y-96150213D01*
X160020000Y-95349605D01*
X159219392Y-96150213D01*
X139865000Y-96150213D01*
X139865000Y-96135030D01*
X139755767Y-95585879D01*
X139444698Y-95120332D01*
X139208190Y-94962302D01*
X158610856Y-94962302D01*
X158638638Y-95517368D01*
X158797603Y-95901143D01*
X159039787Y-95970608D01*
X159840395Y-95170000D01*
X160199605Y-95170000D01*
X161000213Y-95970608D01*
X161242397Y-95901143D01*
X161429144Y-95377698D01*
X161401362Y-94822632D01*
X161242397Y-94438857D01*
X161000213Y-94369392D01*
X160199605Y-95170000D01*
X159840395Y-95170000D01*
X159039787Y-94369392D01*
X158797603Y-94438857D01*
X158610856Y-94962302D01*
X139208190Y-94962302D01*
X138979151Y-94809263D01*
X138430000Y-94700030D01*
X137880849Y-94809263D01*
X137415302Y-95120332D01*
X137160000Y-95502418D01*
X136904698Y-95120332D01*
X136439151Y-94809263D01*
X135890000Y-94700030D01*
X135340849Y-94809263D01*
X134875302Y-95120332D01*
X134620000Y-95502418D01*
X134364698Y-95120332D01*
X133899151Y-94809263D01*
X133350000Y-94700030D01*
X132800849Y-94809263D01*
X132335302Y-95120332D01*
X132080000Y-95502418D01*
X131824698Y-95120332D01*
X131359151Y-94809263D01*
X130810000Y-94700030D01*
X130260849Y-94809263D01*
X129795302Y-95120332D01*
X129540000Y-95502418D01*
X129284698Y-95120332D01*
X128819151Y-94809263D01*
X128270000Y-94700030D01*
X127720849Y-94809263D01*
X127255302Y-95120332D01*
X127000000Y-95502418D01*
X126744698Y-95120332D01*
X126279151Y-94809263D01*
X125730000Y-94700030D01*
X125180849Y-94809263D01*
X124715302Y-95120332D01*
X124460000Y-95502418D01*
X124204698Y-95120332D01*
X123739151Y-94809263D01*
X123190000Y-94700030D01*
X122640849Y-94809263D01*
X122175302Y-95120332D01*
X121864233Y-95585879D01*
X121755000Y-96135030D01*
X101727000Y-96135030D01*
X101727000Y-94189787D01*
X159219392Y-94189787D01*
X160020000Y-94990395D01*
X160820608Y-94189787D01*
X160751143Y-93947603D01*
X160227698Y-93760856D01*
X159672632Y-93788638D01*
X159288857Y-93947603D01*
X159219392Y-94189787D01*
X101727000Y-94189787D01*
X101727000Y-89027000D01*
X121755000Y-89027000D01*
X121755000Y-89377000D01*
X121912834Y-89916483D01*
X122265104Y-90354500D01*
X122758181Y-90624367D01*
X122840961Y-90641904D01*
X123063000Y-90519915D01*
X123063000Y-89027000D01*
X121755000Y-89027000D01*
X101727000Y-89027000D01*
X101727000Y-88423000D01*
X121755000Y-88423000D01*
X121755000Y-88773000D01*
X123063000Y-88773000D01*
X123063000Y-87280085D01*
X123317000Y-87280085D01*
X123317000Y-88773000D01*
X123337000Y-88773000D01*
X123337000Y-89027000D01*
X123317000Y-89027000D01*
X123317000Y-90519915D01*
X123539039Y-90641904D01*
X123621819Y-90624367D01*
X124114896Y-90354500D01*
X124462851Y-89921849D01*
X124715302Y-90299668D01*
X125180849Y-90610737D01*
X125730000Y-90719970D01*
X126279151Y-90610737D01*
X126744698Y-90299668D01*
X127000000Y-89917582D01*
X127255302Y-90299668D01*
X127720849Y-90610737D01*
X128270000Y-90719970D01*
X128819151Y-90610737D01*
X129284698Y-90299668D01*
X129540000Y-89917582D01*
X129795302Y-90299668D01*
X130260849Y-90610737D01*
X130810000Y-90719970D01*
X131359151Y-90610737D01*
X131824698Y-90299668D01*
X132080000Y-89917582D01*
X132335302Y-90299668D01*
X132800849Y-90610737D01*
X133350000Y-90719970D01*
X133899151Y-90610737D01*
X134364698Y-90299668D01*
X134620000Y-89917582D01*
X134875302Y-90299668D01*
X135340849Y-90610737D01*
X135890000Y-90719970D01*
X136439151Y-90610737D01*
X136904698Y-90299668D01*
X137160000Y-89917582D01*
X137415302Y-90299668D01*
X137880849Y-90610737D01*
X138430000Y-90719970D01*
X138979151Y-90610737D01*
X139444698Y-90299668D01*
X139755767Y-89834121D01*
X139865000Y-89284970D01*
X139865000Y-88515030D01*
X139755767Y-87965879D01*
X139747626Y-87953694D01*
X143145226Y-87953694D01*
X143393538Y-88554655D01*
X143852927Y-89014846D01*
X144453453Y-89264206D01*
X145103694Y-89264774D01*
X145704655Y-89016462D01*
X146164846Y-88557073D01*
X146414206Y-87956547D01*
X146414774Y-87306306D01*
X146166462Y-86705345D01*
X145707073Y-86245154D01*
X145106547Y-85995794D01*
X144456306Y-85995226D01*
X143855345Y-86243538D01*
X143395154Y-86702927D01*
X143145794Y-87303453D01*
X143145226Y-87953694D01*
X139747626Y-87953694D01*
X139444698Y-87500332D01*
X138979151Y-87189263D01*
X138430000Y-87080030D01*
X137880849Y-87189263D01*
X137415302Y-87500332D01*
X137160000Y-87882418D01*
X136904698Y-87500332D01*
X136439151Y-87189263D01*
X135890000Y-87080030D01*
X135340849Y-87189263D01*
X134875302Y-87500332D01*
X134620000Y-87882418D01*
X134364698Y-87500332D01*
X133899151Y-87189263D01*
X133350000Y-87080030D01*
X132800849Y-87189263D01*
X132335302Y-87500332D01*
X132080000Y-87882418D01*
X131824698Y-87500332D01*
X131359151Y-87189263D01*
X130810000Y-87080030D01*
X130260849Y-87189263D01*
X129795302Y-87500332D01*
X129540000Y-87882418D01*
X129284698Y-87500332D01*
X128819151Y-87189263D01*
X128270000Y-87080030D01*
X127720849Y-87189263D01*
X127255302Y-87500332D01*
X127000000Y-87882418D01*
X126744698Y-87500332D01*
X126279151Y-87189263D01*
X125730000Y-87080030D01*
X125180849Y-87189263D01*
X124715302Y-87500332D01*
X124462851Y-87878151D01*
X124114896Y-87445500D01*
X123621819Y-87175633D01*
X123539039Y-87158096D01*
X123317000Y-87280085D01*
X123063000Y-87280085D01*
X122840961Y-87158096D01*
X122758181Y-87175633D01*
X122265104Y-87445500D01*
X121912834Y-87883517D01*
X121755000Y-88423000D01*
X101727000Y-88423000D01*
X101727000Y-85880213D01*
X124929392Y-85880213D01*
X124998857Y-86122397D01*
X125522302Y-86309144D01*
X126077368Y-86281362D01*
X126461143Y-86122397D01*
X126530608Y-85880213D01*
X125730000Y-85079605D01*
X124929392Y-85880213D01*
X101727000Y-85880213D01*
X101727000Y-84692302D01*
X124320856Y-84692302D01*
X124348638Y-85247368D01*
X124507603Y-85631143D01*
X124749787Y-85700608D01*
X125550395Y-84900000D01*
X125909605Y-84900000D01*
X126710213Y-85700608D01*
X126952397Y-85631143D01*
X127018213Y-85446661D01*
X158622758Y-85446661D01*
X158834990Y-85960303D01*
X159227630Y-86353629D01*
X159740900Y-86566757D01*
X160296661Y-86567242D01*
X160810303Y-86355010D01*
X161203629Y-85962370D01*
X161416757Y-85449100D01*
X161417242Y-84893339D01*
X161205010Y-84379697D01*
X160812370Y-83986371D01*
X160299100Y-83773243D01*
X159743339Y-83772758D01*
X159229697Y-83984990D01*
X158836371Y-84377630D01*
X158623243Y-84890900D01*
X158622758Y-85446661D01*
X127018213Y-85446661D01*
X127139144Y-85107698D01*
X127111362Y-84552632D01*
X126952397Y-84168857D01*
X126710213Y-84099392D01*
X125909605Y-84900000D01*
X125550395Y-84900000D01*
X124749787Y-84099392D01*
X124507603Y-84168857D01*
X124320856Y-84692302D01*
X101727000Y-84692302D01*
X101727000Y-83919787D01*
X124929392Y-83919787D01*
X125730000Y-84720395D01*
X126530608Y-83919787D01*
X126461143Y-83677603D01*
X125937698Y-83490856D01*
X125382632Y-83518638D01*
X124998857Y-83677603D01*
X124929392Y-83919787D01*
X101727000Y-83919787D01*
X101727000Y-77597000D01*
X182753000Y-77597000D01*
X182753000Y-131953000D01*
M02*
