M48
;DRILL file {KiCad 4.0.2-stable} date 09/07/2016 13:24:18
;FORMAT={-:-/ absolute / metric / decimal}
FMAT,2
METRIC,TZ
T1C0.400
T2C0.800
T3C0.850
T4C1.000
T5C1.001
%
G90
G05
M71
T1
X153.67Y-104.14
T2
X109.22Y-111.76
X111.76Y-111.76
X123.19Y-88.9
X123.19Y-96.52
X125.73Y-88.9
X125.73Y-96.52
X128.27Y-88.9
X128.27Y-96.52
X130.81Y-88.9
X130.81Y-96.52
X130.81Y-111.76
X133.35Y-88.9
X133.35Y-96.52
X133.35Y-111.76
X135.89Y-88.9
X135.89Y-96.52
X138.43Y-88.9
X138.43Y-96.52
X152.4Y-111.76
X154.94Y-111.76
X173.99Y-111.76
X176.53Y-111.76
T3
X160.02Y-85.17
X160.02Y-95.17
T4
X105.26Y-123.23
X105.26Y-128.23
X118.26Y-123.23
X118.26Y-128.23
X125.58Y-123.23
X125.58Y-128.23
X125.73Y-84.9
X125.73Y-105.52
X138.58Y-123.23
X138.58Y-128.23
X145.9Y-123.23
X145.9Y-128.23
X158.9Y-123.23
X158.9Y-128.23
X166.22Y-123.23
X166.22Y-128.23
X179.22Y-123.23
X179.22Y-128.23
T5
X118.11Y-106.68
X118.11Y-116.84
X139.7Y-105.41
X139.7Y-115.57
X144.78Y-87.63
X144.78Y-97.79
X146.05Y-105.41
X146.05Y-115.57
X167.64Y-105.41
X167.64Y-115.57
T0
M30
