M48
;DRILL file {KiCad 4.0.2-stable} date 12/05/2016 07:44:29
;FORMAT={-:-/ absolute / inch / decimal}
FMAT,2
INCH,TZ
T1C0.016
T2C0.030
T3C0.031
T4C0.033
T5C0.039
%
G90
G05
M72
T1
X4.6Y-4.95
X6.05Y-4.1
T2
X4.2614Y-4.872
X4.2614Y-5.128
X4.4386Y-4.872
X4.4386Y-5.128
X4.55Y-3.4047
X4.55Y-3.9953
X5.1114Y-4.872
X5.1114Y-5.128
X5.2886Y-4.872
X5.2886Y-5.128
X5.9614Y-4.872
X5.9614Y-5.128
X6.1386Y-4.872
X6.1386Y-5.128
X6.8114Y-4.872
X6.8114Y-5.128
X6.9886Y-4.872
X6.9886Y-5.128
T3
X4.3Y-4.4
X4.4Y-4.4
X4.85Y-3.5
X4.85Y-3.8
X4.95Y-3.5
X4.95Y-3.8
X5.05Y-3.5
X5.05Y-3.8
X5.15Y-3.5
X5.15Y-3.8
X5.15Y-4.4
X5.25Y-3.5
X5.25Y-3.8
X5.25Y-4.4
X5.35Y-3.5
X5.35Y-3.8
X5.45Y-3.5
X5.45Y-3.8
X6.Y-4.4
X6.1Y-4.4
X6.85Y-4.4
X6.95Y-4.4
T4
X6.3Y-3.3531
X6.3Y-3.7469
T5
X4.65Y-4.2
X4.65Y-4.6
X5.5Y-4.15
X5.5Y-4.55
X5.7Y-3.45
X5.7Y-3.85
X5.75Y-4.15
X5.75Y-4.55
X6.6Y-4.15
X6.6Y-4.55
T0
M30
