G04 #@! TF.FileFunction,Soldermask,Top*
%FSLAX46Y46*%
G04 Gerber Fmt 4.6, Leading zero omitted, Abs format (unit mm)*
G04 Created by KiCad (PCBNEW 4.0.2-stable) date 12/05/2016 07:44:13*
%MOMM*%
G01*
G04 APERTURE LIST*
%ADD10C,0.100000*%
%ADD11C,1.924000*%
%ADD12C,2.200000*%
%ADD13R,2.200000X2.200000*%
%ADD14O,2.000000X2.700000*%
%ADD15C,2.398980*%
G04 APERTURE END LIST*
D10*
D11*
X115570000Y-101480000D03*
X115570000Y-86480000D03*
D12*
X111760000Y-111760000D03*
D13*
X109220000Y-111760000D03*
D12*
X133350000Y-111760000D03*
D13*
X130810000Y-111760000D03*
D12*
X154940000Y-111760000D03*
D13*
X152400000Y-111760000D03*
D12*
X176530000Y-111760000D03*
D13*
X173990000Y-111760000D03*
D14*
X123190000Y-96520000D03*
X125730000Y-96520000D03*
X128270000Y-96520000D03*
X130810000Y-96520000D03*
X133350000Y-96520000D03*
X135890000Y-96520000D03*
X138430000Y-96520000D03*
X138430000Y-88900000D03*
X135890000Y-88900000D03*
X133350000Y-88900000D03*
X130810000Y-88900000D03*
X128270000Y-88900000D03*
X125730000Y-88900000D03*
X123190000Y-88900000D03*
D15*
X118110000Y-106680000D03*
X118110000Y-116840000D03*
X139700000Y-105410000D03*
X139700000Y-115570000D03*
X146050000Y-105410000D03*
X146050000Y-115570000D03*
X167640000Y-105410000D03*
X167640000Y-115570000D03*
X144780000Y-97790000D03*
X144780000Y-87630000D03*
D11*
X112740000Y-123750000D03*
X112740000Y-130250000D03*
X108240000Y-130250000D03*
X108240000Y-123750000D03*
X134330000Y-123750000D03*
X134330000Y-130250000D03*
X129830000Y-130250000D03*
X129830000Y-123750000D03*
X155920000Y-123750000D03*
X155920000Y-130250000D03*
X151420000Y-130250000D03*
X151420000Y-123750000D03*
X177510000Y-123750000D03*
X177510000Y-130250000D03*
X173010000Y-130250000D03*
X173010000Y-123750000D03*
X160020000Y-85170000D03*
X160020000Y-95170000D03*
M02*
