G04 #@! TF.FileFunction,Legend,Top*
%FSLAX46Y46*%
G04 Gerber Fmt 4.6, Leading zero omitted, Abs format (unit mm)*
G04 Created by KiCad (PCBNEW 4.0.6) date Sat Jun 24 19:56:57 2017*
%MOMM*%
%LPD*%
G01*
G04 APERTURE LIST*
%ADD10C,0.100000*%
%ADD11C,0.300000*%
%ADD12C,0.150000*%
G04 APERTURE END LIST*
D10*
D11*
X173478572Y-77918571D02*
X173978572Y-79418571D01*
X174478572Y-77918571D01*
X175550000Y-79347143D02*
X175407143Y-79418571D01*
X175121429Y-79418571D01*
X174978572Y-79347143D01*
X174907143Y-79204286D01*
X174907143Y-78632857D01*
X174978572Y-78490000D01*
X175121429Y-78418571D01*
X175407143Y-78418571D01*
X175550000Y-78490000D01*
X175621429Y-78632857D01*
X175621429Y-78775714D01*
X174907143Y-78918571D01*
X176264286Y-79418571D02*
X176264286Y-78418571D01*
X176264286Y-78704286D02*
X176335714Y-78561429D01*
X176407143Y-78490000D01*
X176550000Y-78418571D01*
X176692857Y-78418571D01*
X177192857Y-79275714D02*
X177264285Y-79347143D01*
X177192857Y-79418571D01*
X177121428Y-79347143D01*
X177192857Y-79275714D01*
X177192857Y-79418571D01*
X178978571Y-78061429D02*
X179050000Y-77990000D01*
X179192857Y-77918571D01*
X179550000Y-77918571D01*
X179692857Y-77990000D01*
X179764286Y-78061429D01*
X179835714Y-78204286D01*
X179835714Y-78347143D01*
X179764286Y-78561429D01*
X178907143Y-79418571D01*
X179835714Y-79418571D01*
X180478571Y-79275714D02*
X180549999Y-79347143D01*
X180478571Y-79418571D01*
X180407142Y-79347143D01*
X180478571Y-79275714D01*
X180478571Y-79418571D01*
X181978571Y-79418571D02*
X181121428Y-79418571D01*
X181550000Y-79418571D02*
X181550000Y-77918571D01*
X181407143Y-78132857D01*
X181264285Y-78275714D01*
X181121428Y-78347143D01*
X171490000Y-118630000D02*
X171347143Y-118558571D01*
X171132857Y-118558571D01*
X170918572Y-118630000D01*
X170775714Y-118772857D01*
X170704286Y-118915714D01*
X170632857Y-119201429D01*
X170632857Y-119415714D01*
X170704286Y-119701429D01*
X170775714Y-119844286D01*
X170918572Y-119987143D01*
X171132857Y-120058571D01*
X171275714Y-120058571D01*
X171490000Y-119987143D01*
X171561429Y-119915714D01*
X171561429Y-119415714D01*
X171275714Y-119415714D01*
X173061429Y-120058571D02*
X172561429Y-119344286D01*
X172204286Y-120058571D02*
X172204286Y-118558571D01*
X172775714Y-118558571D01*
X172918572Y-118630000D01*
X172990000Y-118701429D01*
X173061429Y-118844286D01*
X173061429Y-119058571D01*
X172990000Y-119201429D01*
X172918572Y-119272857D01*
X172775714Y-119344286D01*
X172204286Y-119344286D01*
X173704286Y-119272857D02*
X174204286Y-119272857D01*
X174418572Y-120058571D02*
X173704286Y-120058571D01*
X173704286Y-118558571D01*
X174418572Y-118558571D01*
X175061429Y-119272857D02*
X175561429Y-119272857D01*
X175775715Y-120058571D02*
X175061429Y-120058571D01*
X175061429Y-118558571D01*
X175775715Y-118558571D01*
X176418572Y-120058571D02*
X176418572Y-118558571D01*
X177275715Y-120058571D01*
X177275715Y-118558571D01*
X148864285Y-119344286D02*
X148864285Y-120058571D01*
X148364285Y-118558571D02*
X148864285Y-119344286D01*
X149364285Y-118558571D01*
X149864285Y-119272857D02*
X150364285Y-119272857D01*
X150578571Y-120058571D02*
X149864285Y-120058571D01*
X149864285Y-118558571D01*
X150578571Y-118558571D01*
X151935714Y-120058571D02*
X151221428Y-120058571D01*
X151221428Y-118558571D01*
X153150000Y-120058571D02*
X152435714Y-120058571D01*
X152435714Y-118558571D01*
X153935714Y-118558571D02*
X154221428Y-118558571D01*
X154364286Y-118630000D01*
X154507143Y-118772857D01*
X154578571Y-119058571D01*
X154578571Y-119558571D01*
X154507143Y-119844286D01*
X154364286Y-119987143D01*
X154221428Y-120058571D01*
X153935714Y-120058571D01*
X153792857Y-119987143D01*
X153650000Y-119844286D01*
X153578571Y-119558571D01*
X153578571Y-119058571D01*
X153650000Y-118772857D01*
X153792857Y-118630000D01*
X153935714Y-118558571D01*
X155078572Y-118558571D02*
X155435715Y-120058571D01*
X155721429Y-118987143D01*
X156007143Y-120058571D01*
X156364286Y-118558571D01*
X127575714Y-119272857D02*
X127790000Y-119344286D01*
X127861428Y-119415714D01*
X127932857Y-119558571D01*
X127932857Y-119772857D01*
X127861428Y-119915714D01*
X127790000Y-119987143D01*
X127647142Y-120058571D01*
X127075714Y-120058571D01*
X127075714Y-118558571D01*
X127575714Y-118558571D01*
X127718571Y-118630000D01*
X127790000Y-118701429D01*
X127861428Y-118844286D01*
X127861428Y-118987143D01*
X127790000Y-119130000D01*
X127718571Y-119201429D01*
X127575714Y-119272857D01*
X127075714Y-119272857D01*
X129290000Y-120058571D02*
X128575714Y-120058571D01*
X128575714Y-118558571D01*
X129790000Y-118558571D02*
X129790000Y-119772857D01*
X129861428Y-119915714D01*
X129932857Y-119987143D01*
X130075714Y-120058571D01*
X130361428Y-120058571D01*
X130504286Y-119987143D01*
X130575714Y-119915714D01*
X130647143Y-119772857D01*
X130647143Y-118558571D01*
X131361429Y-119272857D02*
X131861429Y-119272857D01*
X132075715Y-120058571D02*
X131361429Y-120058571D01*
X131361429Y-118558571D01*
X132075715Y-118558571D01*
X106985715Y-120058571D02*
X106485715Y-119344286D01*
X106128572Y-120058571D02*
X106128572Y-118558571D01*
X106700000Y-118558571D01*
X106842858Y-118630000D01*
X106914286Y-118701429D01*
X106985715Y-118844286D01*
X106985715Y-119058571D01*
X106914286Y-119201429D01*
X106842858Y-119272857D01*
X106700000Y-119344286D01*
X106128572Y-119344286D01*
X107628572Y-119272857D02*
X108128572Y-119272857D01*
X108342858Y-120058571D02*
X107628572Y-120058571D01*
X107628572Y-118558571D01*
X108342858Y-118558571D01*
X108985715Y-120058571D02*
X108985715Y-118558571D01*
X109342858Y-118558571D01*
X109557143Y-118630000D01*
X109700001Y-118772857D01*
X109771429Y-118915714D01*
X109842858Y-119201429D01*
X109842858Y-119415714D01*
X109771429Y-119701429D01*
X109700001Y-119844286D01*
X109557143Y-119987143D01*
X109342858Y-120058571D01*
X108985715Y-120058571D01*
X105674286Y-79275714D02*
X105602857Y-79347143D01*
X105388571Y-79418571D01*
X105245714Y-79418571D01*
X105031429Y-79347143D01*
X104888571Y-79204286D01*
X104817143Y-79061429D01*
X104745714Y-78775714D01*
X104745714Y-78561429D01*
X104817143Y-78275714D01*
X104888571Y-78132857D01*
X105031429Y-77990000D01*
X105245714Y-77918571D01*
X105388571Y-77918571D01*
X105602857Y-77990000D01*
X105674286Y-78061429D01*
X106531429Y-79418571D02*
X106388571Y-79347143D01*
X106317143Y-79275714D01*
X106245714Y-79132857D01*
X106245714Y-78704286D01*
X106317143Y-78561429D01*
X106388571Y-78490000D01*
X106531429Y-78418571D01*
X106745714Y-78418571D01*
X106888571Y-78490000D01*
X106960000Y-78561429D01*
X107031429Y-78704286D01*
X107031429Y-79132857D01*
X106960000Y-79275714D01*
X106888571Y-79347143D01*
X106745714Y-79418571D01*
X106531429Y-79418571D01*
X107674286Y-78418571D02*
X107674286Y-79918571D01*
X107674286Y-78490000D02*
X107817143Y-78418571D01*
X108102857Y-78418571D01*
X108245714Y-78490000D01*
X108317143Y-78561429D01*
X108388572Y-78704286D01*
X108388572Y-79132857D01*
X108317143Y-79275714D01*
X108245714Y-79347143D01*
X108102857Y-79418571D01*
X107817143Y-79418571D01*
X107674286Y-79347143D01*
X108888572Y-78418571D02*
X109245715Y-79418571D01*
X109602857Y-78418571D02*
X109245715Y-79418571D01*
X109102857Y-79775714D01*
X109031429Y-79847143D01*
X108888572Y-79918571D01*
X110174286Y-79418571D02*
X110174286Y-77918571D01*
X110674286Y-78990000D01*
X111174286Y-77918571D01*
X111174286Y-79418571D01*
X112460000Y-79347143D02*
X112317143Y-79418571D01*
X112031429Y-79418571D01*
X111888572Y-79347143D01*
X111817143Y-79204286D01*
X111817143Y-78632857D01*
X111888572Y-78490000D01*
X112031429Y-78418571D01*
X112317143Y-78418571D01*
X112460000Y-78490000D01*
X112531429Y-78632857D01*
X112531429Y-78775714D01*
X111817143Y-78918571D01*
X113388572Y-78561429D02*
X113245714Y-78490000D01*
X113174286Y-78418571D01*
X113102857Y-78275714D01*
X113102857Y-78204286D01*
X113174286Y-78061429D01*
X113245714Y-77990000D01*
X113388572Y-77918571D01*
X113674286Y-77918571D01*
X113817143Y-77990000D01*
X113888572Y-78061429D01*
X113960000Y-78204286D01*
X113960000Y-78275714D01*
X113888572Y-78418571D01*
X113817143Y-78490000D01*
X113674286Y-78561429D01*
X113388572Y-78561429D01*
X113245714Y-78632857D01*
X113174286Y-78704286D01*
X113102857Y-78847143D01*
X113102857Y-79132857D01*
X113174286Y-79275714D01*
X113245714Y-79347143D01*
X113388572Y-79418571D01*
X113674286Y-79418571D01*
X113817143Y-79347143D01*
X113888572Y-79275714D01*
X113960000Y-79132857D01*
X113960000Y-78847143D01*
X113888572Y-78704286D01*
X113817143Y-78632857D01*
X113674286Y-78561429D01*
X115245714Y-78418571D02*
X115245714Y-79418571D01*
X114888571Y-77847143D02*
X114531428Y-78918571D01*
X115460000Y-78918571D01*
X117174285Y-79418571D02*
X117174285Y-77918571D01*
X117174285Y-78490000D02*
X117317142Y-78418571D01*
X117602856Y-78418571D01*
X117745713Y-78490000D01*
X117817142Y-78561429D01*
X117888571Y-78704286D01*
X117888571Y-79132857D01*
X117817142Y-79275714D01*
X117745713Y-79347143D01*
X117602856Y-79418571D01*
X117317142Y-79418571D01*
X117174285Y-79347143D01*
X118388571Y-78418571D02*
X118745714Y-79418571D01*
X119102856Y-78418571D02*
X118745714Y-79418571D01*
X118602856Y-79775714D01*
X118531428Y-79847143D01*
X118388571Y-79918571D01*
X120602856Y-78418571D02*
X121174285Y-78418571D01*
X120817142Y-77918571D02*
X120817142Y-79204286D01*
X120888570Y-79347143D01*
X121031428Y-79418571D01*
X121174285Y-79418571D01*
X121674285Y-79418571D02*
X121674285Y-77918571D01*
X122317142Y-79418571D02*
X122317142Y-78632857D01*
X122245713Y-78490000D01*
X122102856Y-78418571D01*
X121888571Y-78418571D01*
X121745713Y-78490000D01*
X121674285Y-78561429D01*
X123031428Y-79418571D02*
X123031428Y-78418571D01*
X123031428Y-77918571D02*
X122959999Y-77990000D01*
X123031428Y-78061429D01*
X123102856Y-77990000D01*
X123031428Y-77918571D01*
X123031428Y-78061429D01*
X123745714Y-78418571D02*
X123745714Y-79418571D01*
X123745714Y-78561429D02*
X123817142Y-78490000D01*
X123960000Y-78418571D01*
X124174285Y-78418571D01*
X124317142Y-78490000D01*
X124388571Y-78632857D01*
X124388571Y-79418571D01*
X125745714Y-78418571D02*
X125745714Y-79632857D01*
X125674285Y-79775714D01*
X125602857Y-79847143D01*
X125460000Y-79918571D01*
X125245714Y-79918571D01*
X125102857Y-79847143D01*
X125745714Y-79347143D02*
X125602857Y-79418571D01*
X125317143Y-79418571D01*
X125174285Y-79347143D01*
X125102857Y-79275714D01*
X125031428Y-79132857D01*
X125031428Y-78704286D01*
X125102857Y-78561429D01*
X125174285Y-78490000D01*
X125317143Y-78418571D01*
X125602857Y-78418571D01*
X125745714Y-78490000D01*
X126388571Y-79347143D02*
X126531428Y-79418571D01*
X126817143Y-79418571D01*
X126960000Y-79347143D01*
X127031428Y-79204286D01*
X127031428Y-79132857D01*
X126960000Y-78990000D01*
X126817143Y-78918571D01*
X126602857Y-78918571D01*
X126460000Y-78847143D01*
X126388571Y-78704286D01*
X126388571Y-78632857D01*
X126460000Y-78490000D01*
X126602857Y-78418571D01*
X126817143Y-78418571D01*
X126960000Y-78490000D01*
X127460000Y-78418571D02*
X128031429Y-78418571D01*
X127674286Y-79418571D02*
X127674286Y-78132857D01*
X127745714Y-77990000D01*
X127888572Y-77918571D01*
X128031429Y-77918571D01*
X128745715Y-79418571D02*
X128602857Y-79347143D01*
X128531429Y-79275714D01*
X128460000Y-79132857D01*
X128460000Y-78704286D01*
X128531429Y-78561429D01*
X128602857Y-78490000D01*
X128745715Y-78418571D01*
X128960000Y-78418571D01*
X129102857Y-78490000D01*
X129174286Y-78561429D01*
X129245715Y-78704286D01*
X129245715Y-79132857D01*
X129174286Y-79275714D01*
X129102857Y-79347143D01*
X128960000Y-79418571D01*
X128745715Y-79418571D01*
X129888572Y-79418571D02*
X129888572Y-78418571D01*
X129888572Y-78704286D02*
X129960000Y-78561429D01*
X130031429Y-78490000D01*
X130174286Y-78418571D01*
X130317143Y-78418571D01*
X130817143Y-79418571D02*
X130817143Y-77918571D01*
X131460000Y-79418571D02*
X131460000Y-78632857D01*
X131388571Y-78490000D01*
X131245714Y-78418571D01*
X131031429Y-78418571D01*
X130888571Y-78490000D01*
X130817143Y-78561429D01*
X132817143Y-79418571D02*
X132817143Y-78632857D01*
X132745714Y-78490000D01*
X132602857Y-78418571D01*
X132317143Y-78418571D01*
X132174286Y-78490000D01*
X132817143Y-79347143D02*
X132674286Y-79418571D01*
X132317143Y-79418571D01*
X132174286Y-79347143D01*
X132102857Y-79204286D01*
X132102857Y-79061429D01*
X132174286Y-78918571D01*
X132317143Y-78847143D01*
X132674286Y-78847143D01*
X132817143Y-78775714D01*
X134174286Y-79347143D02*
X134031429Y-79418571D01*
X133745715Y-79418571D01*
X133602857Y-79347143D01*
X133531429Y-79275714D01*
X133460000Y-79132857D01*
X133460000Y-78704286D01*
X133531429Y-78561429D01*
X133602857Y-78490000D01*
X133745715Y-78418571D01*
X134031429Y-78418571D01*
X134174286Y-78490000D01*
X134817143Y-79418571D02*
X134817143Y-77918571D01*
X134960000Y-78847143D02*
X135388571Y-79418571D01*
X135388571Y-78418571D02*
X134817143Y-78990000D01*
X136602857Y-79347143D02*
X136460000Y-79418571D01*
X136174286Y-79418571D01*
X136031429Y-79347143D01*
X135960000Y-79204286D01*
X135960000Y-78632857D01*
X136031429Y-78490000D01*
X136174286Y-78418571D01*
X136460000Y-78418571D01*
X136602857Y-78490000D01*
X136674286Y-78632857D01*
X136674286Y-78775714D01*
X135960000Y-78918571D01*
X137317143Y-79418571D02*
X137317143Y-78418571D01*
X137317143Y-78704286D02*
X137388571Y-78561429D01*
X137460000Y-78490000D01*
X137602857Y-78418571D01*
X137745714Y-78418571D01*
X138174285Y-79347143D02*
X138317142Y-79418571D01*
X138602857Y-79418571D01*
X138745714Y-79347143D01*
X138817142Y-79204286D01*
X138817142Y-79132857D01*
X138745714Y-78990000D01*
X138602857Y-78918571D01*
X138388571Y-78918571D01*
X138245714Y-78847143D01*
X138174285Y-78704286D01*
X138174285Y-78632857D01*
X138245714Y-78490000D01*
X138388571Y-78418571D01*
X138602857Y-78418571D01*
X138745714Y-78490000D01*
X139460000Y-79275714D02*
X139531428Y-79347143D01*
X139460000Y-79418571D01*
X139388571Y-79347143D01*
X139460000Y-79275714D01*
X139460000Y-79418571D01*
X140817143Y-79347143D02*
X140674286Y-79418571D01*
X140388572Y-79418571D01*
X140245714Y-79347143D01*
X140174286Y-79275714D01*
X140102857Y-79132857D01*
X140102857Y-78704286D01*
X140174286Y-78561429D01*
X140245714Y-78490000D01*
X140388572Y-78418571D01*
X140674286Y-78418571D01*
X140817143Y-78490000D01*
X141674286Y-79418571D02*
X141531428Y-79347143D01*
X141460000Y-79275714D01*
X141388571Y-79132857D01*
X141388571Y-78704286D01*
X141460000Y-78561429D01*
X141531428Y-78490000D01*
X141674286Y-78418571D01*
X141888571Y-78418571D01*
X142031428Y-78490000D01*
X142102857Y-78561429D01*
X142174286Y-78704286D01*
X142174286Y-79132857D01*
X142102857Y-79275714D01*
X142031428Y-79347143D01*
X141888571Y-79418571D01*
X141674286Y-79418571D01*
X142817143Y-79418571D02*
X142817143Y-78418571D01*
X142817143Y-78561429D02*
X142888571Y-78490000D01*
X143031429Y-78418571D01*
X143245714Y-78418571D01*
X143388571Y-78490000D01*
X143460000Y-78632857D01*
X143460000Y-79418571D01*
X143460000Y-78632857D02*
X143531429Y-78490000D01*
X143674286Y-78418571D01*
X143888571Y-78418571D01*
X144031429Y-78490000D01*
X144102857Y-78632857D01*
X144102857Y-79418571D01*
D12*
X105490000Y-110530000D02*
X105490000Y-112990000D01*
X105493439Y-113003899D02*
G75*
G03X105490000Y-110530000I4996561J1243899D01*
G01*
X115490000Y-111760000D02*
G75*
G03X115490000Y-111760000I-5000000J0D01*
G01*
X127080000Y-110530000D02*
X127080000Y-112990000D01*
X127083439Y-113003899D02*
G75*
G03X127080000Y-110530000I4996561J1243899D01*
G01*
X137080000Y-111760000D02*
G75*
G03X137080000Y-111760000I-5000000J0D01*
G01*
X148670000Y-110530000D02*
X148670000Y-112990000D01*
X148673439Y-113003899D02*
G75*
G03X148670000Y-110530000I4996561J1243899D01*
G01*
X158670000Y-111760000D02*
G75*
G03X158670000Y-111760000I-5000000J0D01*
G01*
X170260000Y-110530000D02*
X170260000Y-112990000D01*
X170263439Y-113003899D02*
G75*
G03X170260000Y-110530000I4996561J1243899D01*
G01*
X180260000Y-111760000D02*
G75*
G03X180260000Y-111760000I-5000000J0D01*
G01*
X120895000Y-96385000D02*
X122165000Y-96385000D01*
X120895000Y-89035000D02*
X122165000Y-89035000D01*
X140725000Y-89035000D02*
X139455000Y-89035000D01*
X140725000Y-96385000D02*
X139455000Y-96385000D01*
X120895000Y-96385000D02*
X120895000Y-89035000D01*
X140725000Y-96385000D02*
X140725000Y-89035000D01*
X122165000Y-96385000D02*
X122165000Y-97670000D01*
X119380000Y-109220000D02*
X119380000Y-114300000D01*
X119380000Y-114300000D02*
X116840000Y-114300000D01*
X116840000Y-114300000D02*
X116840000Y-109220000D01*
X116840000Y-109220000D02*
X119380000Y-109220000D01*
X118110000Y-109220000D02*
X118110000Y-107950000D01*
X118110000Y-114300000D02*
X118110000Y-115570000D01*
X140970000Y-107950000D02*
X140970000Y-113030000D01*
X140970000Y-113030000D02*
X138430000Y-113030000D01*
X138430000Y-113030000D02*
X138430000Y-107950000D01*
X138430000Y-107950000D02*
X140970000Y-107950000D01*
X139700000Y-107950000D02*
X139700000Y-106680000D01*
X139700000Y-113030000D02*
X139700000Y-114300000D01*
X147320000Y-107950000D02*
X147320000Y-113030000D01*
X147320000Y-113030000D02*
X144780000Y-113030000D01*
X144780000Y-113030000D02*
X144780000Y-107950000D01*
X144780000Y-107950000D02*
X147320000Y-107950000D01*
X146050000Y-107950000D02*
X146050000Y-106680000D01*
X146050000Y-113030000D02*
X146050000Y-114300000D01*
X168910000Y-107950000D02*
X168910000Y-113030000D01*
X168910000Y-113030000D02*
X166370000Y-113030000D01*
X166370000Y-113030000D02*
X166370000Y-107950000D01*
X166370000Y-107950000D02*
X168910000Y-107950000D01*
X167640000Y-107950000D02*
X167640000Y-106680000D01*
X167640000Y-113030000D02*
X167640000Y-114300000D01*
X143510000Y-95250000D02*
X143510000Y-90170000D01*
X143510000Y-90170000D02*
X146050000Y-90170000D01*
X146050000Y-90170000D02*
X146050000Y-95250000D01*
X146050000Y-95250000D02*
X143510000Y-95250000D01*
X144780000Y-95250000D02*
X144780000Y-96520000D01*
X144780000Y-90170000D02*
X144780000Y-88900000D01*
X171270000Y-90170000D02*
G75*
G03X171270000Y-90170000I-11250000J0D01*
G01*
X110744000Y-124714000D02*
X112776000Y-124714000D01*
X112776000Y-124714000D02*
X112776000Y-126746000D01*
X112776000Y-126746000D02*
X110744000Y-126746000D01*
X110744000Y-126746000D02*
X110744000Y-124714000D01*
X117348000Y-130302000D02*
G75*
G03X117348000Y-130302000I-508000J0D01*
G01*
X107188000Y-130302000D02*
G75*
G03X107188000Y-130302000I-508000J0D01*
G01*
X117348000Y-121158000D02*
G75*
G03X117348000Y-121158000I-508000J0D01*
G01*
X107188000Y-121158000D02*
G75*
G03X107188000Y-121158000I-508000J0D01*
G01*
X115100000Y-125730000D02*
G75*
G03X115100000Y-125730000I-3340000J0D01*
G01*
X117856000Y-120142000D02*
X117856000Y-131318000D01*
X105664000Y-131318000D02*
X105664000Y-120142000D01*
X105664000Y-131318000D02*
X117856000Y-131318000D01*
X117856000Y-120142000D02*
X105664000Y-120142000D01*
X131064000Y-124714000D02*
X133096000Y-124714000D01*
X133096000Y-124714000D02*
X133096000Y-126746000D01*
X133096000Y-126746000D02*
X131064000Y-126746000D01*
X131064000Y-126746000D02*
X131064000Y-124714000D01*
X137668000Y-130302000D02*
G75*
G03X137668000Y-130302000I-508000J0D01*
G01*
X127508000Y-130302000D02*
G75*
G03X127508000Y-130302000I-508000J0D01*
G01*
X137668000Y-121158000D02*
G75*
G03X137668000Y-121158000I-508000J0D01*
G01*
X127508000Y-121158000D02*
G75*
G03X127508000Y-121158000I-508000J0D01*
G01*
X135420000Y-125730000D02*
G75*
G03X135420000Y-125730000I-3340000J0D01*
G01*
X138176000Y-120142000D02*
X138176000Y-131318000D01*
X125984000Y-131318000D02*
X125984000Y-120142000D01*
X125984000Y-131318000D02*
X138176000Y-131318000D01*
X138176000Y-120142000D02*
X125984000Y-120142000D01*
X151384000Y-124714000D02*
X153416000Y-124714000D01*
X153416000Y-124714000D02*
X153416000Y-126746000D01*
X153416000Y-126746000D02*
X151384000Y-126746000D01*
X151384000Y-126746000D02*
X151384000Y-124714000D01*
X157988000Y-130302000D02*
G75*
G03X157988000Y-130302000I-508000J0D01*
G01*
X147828000Y-130302000D02*
G75*
G03X147828000Y-130302000I-508000J0D01*
G01*
X157988000Y-121158000D02*
G75*
G03X157988000Y-121158000I-508000J0D01*
G01*
X147828000Y-121158000D02*
G75*
G03X147828000Y-121158000I-508000J0D01*
G01*
X155740000Y-125730000D02*
G75*
G03X155740000Y-125730000I-3340000J0D01*
G01*
X158496000Y-120142000D02*
X158496000Y-131318000D01*
X146304000Y-131318000D02*
X146304000Y-120142000D01*
X146304000Y-131318000D02*
X158496000Y-131318000D01*
X158496000Y-120142000D02*
X146304000Y-120142000D01*
X171704000Y-124714000D02*
X173736000Y-124714000D01*
X173736000Y-124714000D02*
X173736000Y-126746000D01*
X173736000Y-126746000D02*
X171704000Y-126746000D01*
X171704000Y-126746000D02*
X171704000Y-124714000D01*
X178308000Y-130302000D02*
G75*
G03X178308000Y-130302000I-508000J0D01*
G01*
X168148000Y-130302000D02*
G75*
G03X168148000Y-130302000I-508000J0D01*
G01*
X178308000Y-121158000D02*
G75*
G03X178308000Y-121158000I-508000J0D01*
G01*
X168148000Y-121158000D02*
G75*
G03X168148000Y-121158000I-508000J0D01*
G01*
X176060000Y-125730000D02*
G75*
G03X176060000Y-125730000I-3340000J0D01*
G01*
X178816000Y-120142000D02*
X178816000Y-131318000D01*
X166624000Y-131318000D02*
X166624000Y-120142000D01*
X166624000Y-131318000D02*
X178816000Y-131318000D01*
X178816000Y-120142000D02*
X166624000Y-120142000D01*
X109751905Y-105962381D02*
X109751905Y-104962381D01*
X109990000Y-104962381D01*
X110132858Y-105010000D01*
X110228096Y-105105238D01*
X110275715Y-105200476D01*
X110323334Y-105390952D01*
X110323334Y-105533810D01*
X110275715Y-105724286D01*
X110228096Y-105819524D01*
X110132858Y-105914762D01*
X109990000Y-105962381D01*
X109751905Y-105962381D01*
X111275715Y-105962381D02*
X110704286Y-105962381D01*
X110990000Y-105962381D02*
X110990000Y-104962381D01*
X110894762Y-105105238D01*
X110799524Y-105200476D01*
X110704286Y-105248095D01*
X131341905Y-105962381D02*
X131341905Y-104962381D01*
X131580000Y-104962381D01*
X131722858Y-105010000D01*
X131818096Y-105105238D01*
X131865715Y-105200476D01*
X131913334Y-105390952D01*
X131913334Y-105533810D01*
X131865715Y-105724286D01*
X131818096Y-105819524D01*
X131722858Y-105914762D01*
X131580000Y-105962381D01*
X131341905Y-105962381D01*
X132294286Y-105057619D02*
X132341905Y-105010000D01*
X132437143Y-104962381D01*
X132675239Y-104962381D01*
X132770477Y-105010000D01*
X132818096Y-105057619D01*
X132865715Y-105152857D01*
X132865715Y-105248095D01*
X132818096Y-105390952D01*
X132246667Y-105962381D01*
X132865715Y-105962381D01*
X152931905Y-105962381D02*
X152931905Y-104962381D01*
X153170000Y-104962381D01*
X153312858Y-105010000D01*
X153408096Y-105105238D01*
X153455715Y-105200476D01*
X153503334Y-105390952D01*
X153503334Y-105533810D01*
X153455715Y-105724286D01*
X153408096Y-105819524D01*
X153312858Y-105914762D01*
X153170000Y-105962381D01*
X152931905Y-105962381D01*
X153836667Y-104962381D02*
X154455715Y-104962381D01*
X154122381Y-105343333D01*
X154265239Y-105343333D01*
X154360477Y-105390952D01*
X154408096Y-105438571D01*
X154455715Y-105533810D01*
X154455715Y-105771905D01*
X154408096Y-105867143D01*
X154360477Y-105914762D01*
X154265239Y-105962381D01*
X153979524Y-105962381D01*
X153884286Y-105914762D01*
X153836667Y-105867143D01*
X174521905Y-105962381D02*
X174521905Y-104962381D01*
X174760000Y-104962381D01*
X174902858Y-105010000D01*
X174998096Y-105105238D01*
X175045715Y-105200476D01*
X175093334Y-105390952D01*
X175093334Y-105533810D01*
X175045715Y-105724286D01*
X174998096Y-105819524D01*
X174902858Y-105914762D01*
X174760000Y-105962381D01*
X174521905Y-105962381D01*
X175950477Y-105295714D02*
X175950477Y-105962381D01*
X175712381Y-104914762D02*
X175474286Y-105629048D01*
X176093334Y-105629048D01*
X118403810Y-93162381D02*
X118403810Y-92162381D01*
X119451429Y-93067143D02*
X119403810Y-93114762D01*
X119260953Y-93162381D01*
X119165715Y-93162381D01*
X119022857Y-93114762D01*
X118927619Y-93019524D01*
X118880000Y-92924286D01*
X118832381Y-92733810D01*
X118832381Y-92590952D01*
X118880000Y-92400476D01*
X118927619Y-92305238D01*
X119022857Y-92210000D01*
X119165715Y-92162381D01*
X119260953Y-92162381D01*
X119403810Y-92210000D01*
X119451429Y-92257619D01*
X120403810Y-93162381D02*
X119832381Y-93162381D01*
X120118095Y-93162381D02*
X120118095Y-92162381D01*
X120022857Y-92305238D01*
X119927619Y-92400476D01*
X119832381Y-92448095D01*
X120483334Y-112212381D02*
X120150000Y-111736190D01*
X119911905Y-112212381D02*
X119911905Y-111212381D01*
X120292858Y-111212381D01*
X120388096Y-111260000D01*
X120435715Y-111307619D01*
X120483334Y-111402857D01*
X120483334Y-111545714D01*
X120435715Y-111640952D01*
X120388096Y-111688571D01*
X120292858Y-111736190D01*
X119911905Y-111736190D01*
X121435715Y-112212381D02*
X120864286Y-112212381D01*
X121150000Y-112212381D02*
X121150000Y-111212381D01*
X121054762Y-111355238D01*
X120959524Y-111450476D01*
X120864286Y-111498095D01*
X142073334Y-112212381D02*
X141740000Y-111736190D01*
X141501905Y-112212381D02*
X141501905Y-111212381D01*
X141882858Y-111212381D01*
X141978096Y-111260000D01*
X142025715Y-111307619D01*
X142073334Y-111402857D01*
X142073334Y-111545714D01*
X142025715Y-111640952D01*
X141978096Y-111688571D01*
X141882858Y-111736190D01*
X141501905Y-111736190D01*
X142454286Y-111307619D02*
X142501905Y-111260000D01*
X142597143Y-111212381D01*
X142835239Y-111212381D01*
X142930477Y-111260000D01*
X142978096Y-111307619D01*
X143025715Y-111402857D01*
X143025715Y-111498095D01*
X142978096Y-111640952D01*
X142406667Y-112212381D01*
X143025715Y-112212381D01*
X143343334Y-108402381D02*
X143010000Y-107926190D01*
X142771905Y-108402381D02*
X142771905Y-107402381D01*
X143152858Y-107402381D01*
X143248096Y-107450000D01*
X143295715Y-107497619D01*
X143343334Y-107592857D01*
X143343334Y-107735714D01*
X143295715Y-107830952D01*
X143248096Y-107878571D01*
X143152858Y-107926190D01*
X142771905Y-107926190D01*
X143676667Y-107402381D02*
X144295715Y-107402381D01*
X143962381Y-107783333D01*
X144105239Y-107783333D01*
X144200477Y-107830952D01*
X144248096Y-107878571D01*
X144295715Y-107973810D01*
X144295715Y-108211905D01*
X144248096Y-108307143D01*
X144200477Y-108354762D01*
X144105239Y-108402381D01*
X143819524Y-108402381D01*
X143724286Y-108354762D01*
X143676667Y-108307143D01*
X164933334Y-112212381D02*
X164600000Y-111736190D01*
X164361905Y-112212381D02*
X164361905Y-111212381D01*
X164742858Y-111212381D01*
X164838096Y-111260000D01*
X164885715Y-111307619D01*
X164933334Y-111402857D01*
X164933334Y-111545714D01*
X164885715Y-111640952D01*
X164838096Y-111688571D01*
X164742858Y-111736190D01*
X164361905Y-111736190D01*
X165790477Y-111545714D02*
X165790477Y-112212381D01*
X165552381Y-111164762D02*
X165314286Y-111879048D01*
X165933334Y-111879048D01*
X147153334Y-94432381D02*
X146820000Y-93956190D01*
X146581905Y-94432381D02*
X146581905Y-93432381D01*
X146962858Y-93432381D01*
X147058096Y-93480000D01*
X147105715Y-93527619D01*
X147153334Y-93622857D01*
X147153334Y-93765714D01*
X147105715Y-93860952D01*
X147058096Y-93908571D01*
X146962858Y-93956190D01*
X146581905Y-93956190D01*
X148058096Y-93432381D02*
X147581905Y-93432381D01*
X147534286Y-93908571D01*
X147581905Y-93860952D01*
X147677143Y-93813333D01*
X147915239Y-93813333D01*
X148010477Y-93860952D01*
X148058096Y-93908571D01*
X148105715Y-94003810D01*
X148105715Y-94241905D01*
X148058096Y-94337143D01*
X148010477Y-94384762D01*
X147915239Y-94432381D01*
X147677143Y-94432381D01*
X147581905Y-94384762D01*
X147534286Y-94337143D01*
X158758095Y-82954762D02*
X158900952Y-83002381D01*
X159139048Y-83002381D01*
X159234286Y-82954762D01*
X159281905Y-82907143D01*
X159329524Y-82811905D01*
X159329524Y-82716667D01*
X159281905Y-82621429D01*
X159234286Y-82573810D01*
X159139048Y-82526190D01*
X158948571Y-82478571D01*
X158853333Y-82430952D01*
X158805714Y-82383333D01*
X158758095Y-82288095D01*
X158758095Y-82192857D01*
X158805714Y-82097619D01*
X158853333Y-82050000D01*
X158948571Y-82002381D01*
X159186667Y-82002381D01*
X159329524Y-82050000D01*
X159758095Y-83002381D02*
X159758095Y-82002381D01*
X160139048Y-82002381D01*
X160234286Y-82050000D01*
X160281905Y-82097619D01*
X160329524Y-82192857D01*
X160329524Y-82335714D01*
X160281905Y-82430952D01*
X160234286Y-82478571D01*
X160139048Y-82526190D01*
X159758095Y-82526190D01*
X161281905Y-83002381D02*
X160710476Y-83002381D01*
X160996190Y-83002381D02*
X160996190Y-82002381D01*
X160900952Y-82145238D01*
X160805714Y-82240476D01*
X160710476Y-82288095D01*
X107886667Y-129944762D02*
X108029524Y-129992381D01*
X108267620Y-129992381D01*
X108362858Y-129944762D01*
X108410477Y-129897143D01*
X108458096Y-129801905D01*
X108458096Y-129706667D01*
X108410477Y-129611429D01*
X108362858Y-129563810D01*
X108267620Y-129516190D01*
X108077143Y-129468571D01*
X107981905Y-129420952D01*
X107934286Y-129373333D01*
X107886667Y-129278095D01*
X107886667Y-129182857D01*
X107934286Y-129087619D01*
X107981905Y-129040000D01*
X108077143Y-128992381D01*
X108315239Y-128992381D01*
X108458096Y-129040000D01*
X108791429Y-128992381D02*
X109029524Y-129992381D01*
X109220001Y-129278095D01*
X109410477Y-129992381D01*
X109648572Y-128992381D01*
X110553334Y-129992381D02*
X109981905Y-129992381D01*
X110267619Y-129992381D02*
X110267619Y-128992381D01*
X110172381Y-129135238D01*
X110077143Y-129230476D01*
X109981905Y-129278095D01*
X128206667Y-129944762D02*
X128349524Y-129992381D01*
X128587620Y-129992381D01*
X128682858Y-129944762D01*
X128730477Y-129897143D01*
X128778096Y-129801905D01*
X128778096Y-129706667D01*
X128730477Y-129611429D01*
X128682858Y-129563810D01*
X128587620Y-129516190D01*
X128397143Y-129468571D01*
X128301905Y-129420952D01*
X128254286Y-129373333D01*
X128206667Y-129278095D01*
X128206667Y-129182857D01*
X128254286Y-129087619D01*
X128301905Y-129040000D01*
X128397143Y-128992381D01*
X128635239Y-128992381D01*
X128778096Y-129040000D01*
X129111429Y-128992381D02*
X129349524Y-129992381D01*
X129540001Y-129278095D01*
X129730477Y-129992381D01*
X129968572Y-128992381D01*
X130301905Y-129087619D02*
X130349524Y-129040000D01*
X130444762Y-128992381D01*
X130682858Y-128992381D01*
X130778096Y-129040000D01*
X130825715Y-129087619D01*
X130873334Y-129182857D01*
X130873334Y-129278095D01*
X130825715Y-129420952D01*
X130254286Y-129992381D01*
X130873334Y-129992381D01*
X148526667Y-129944762D02*
X148669524Y-129992381D01*
X148907620Y-129992381D01*
X149002858Y-129944762D01*
X149050477Y-129897143D01*
X149098096Y-129801905D01*
X149098096Y-129706667D01*
X149050477Y-129611429D01*
X149002858Y-129563810D01*
X148907620Y-129516190D01*
X148717143Y-129468571D01*
X148621905Y-129420952D01*
X148574286Y-129373333D01*
X148526667Y-129278095D01*
X148526667Y-129182857D01*
X148574286Y-129087619D01*
X148621905Y-129040000D01*
X148717143Y-128992381D01*
X148955239Y-128992381D01*
X149098096Y-129040000D01*
X149431429Y-128992381D02*
X149669524Y-129992381D01*
X149860001Y-129278095D01*
X150050477Y-129992381D01*
X150288572Y-128992381D01*
X150574286Y-128992381D02*
X151193334Y-128992381D01*
X150860000Y-129373333D01*
X151002858Y-129373333D01*
X151098096Y-129420952D01*
X151145715Y-129468571D01*
X151193334Y-129563810D01*
X151193334Y-129801905D01*
X151145715Y-129897143D01*
X151098096Y-129944762D01*
X151002858Y-129992381D01*
X150717143Y-129992381D01*
X150621905Y-129944762D01*
X150574286Y-129897143D01*
X168846667Y-129944762D02*
X168989524Y-129992381D01*
X169227620Y-129992381D01*
X169322858Y-129944762D01*
X169370477Y-129897143D01*
X169418096Y-129801905D01*
X169418096Y-129706667D01*
X169370477Y-129611429D01*
X169322858Y-129563810D01*
X169227620Y-129516190D01*
X169037143Y-129468571D01*
X168941905Y-129420952D01*
X168894286Y-129373333D01*
X168846667Y-129278095D01*
X168846667Y-129182857D01*
X168894286Y-129087619D01*
X168941905Y-129040000D01*
X169037143Y-128992381D01*
X169275239Y-128992381D01*
X169418096Y-129040000D01*
X169751429Y-128992381D02*
X169989524Y-129992381D01*
X170180001Y-129278095D01*
X170370477Y-129992381D01*
X170608572Y-128992381D01*
X171418096Y-129325714D02*
X171418096Y-129992381D01*
X171180000Y-128944762D02*
X170941905Y-129659048D01*
X171560953Y-129659048D01*
M02*
