M48
;DRILL file {KiCad 4.0.6} date Sat Jun 24 19:57:03 2017
;FORMAT={-:-/ absolute / inch / decimal}
FMAT,2
INCH,TZ
T1C0.016
T2C0.031
T3C0.033
T4C0.039
T5C0.039
%
G90
G05
M72
T1
X6.05Y-4.1
T2
X4.3Y-4.4
X4.4Y-4.4
X4.85Y-3.5
X4.85Y-3.8
X4.95Y-3.5
X4.95Y-3.8
X5.05Y-3.5
X5.05Y-3.8
X5.15Y-3.5
X5.15Y-3.8
X5.15Y-4.4
X5.25Y-3.5
X5.25Y-3.8
X5.25Y-4.4
X5.35Y-3.5
X5.35Y-3.8
X5.45Y-3.5
X5.45Y-3.8
X6.Y-4.4
X6.1Y-4.4
X6.85Y-4.4
X6.95Y-4.4
T3
X6.3Y-3.3531
X6.3Y-3.7469
T4
X4.1441Y-4.8516
X4.1441Y-5.0484
X4.6559Y-4.8516
X4.6559Y-5.0484
X4.9441Y-4.8516
X4.9441Y-5.0484
X4.95Y-3.3425
X4.95Y-4.1543
X5.4559Y-4.8516
X5.4559Y-5.0484
X5.7441Y-4.8516
X5.7441Y-5.0484
X6.2559Y-4.8516
X6.2559Y-5.0484
X6.5441Y-4.8516
X6.5441Y-5.0484
X7.0559Y-4.8516
X7.0559Y-5.0484
T5
X4.65Y-4.2
X4.65Y-4.6
X5.5Y-4.15
X5.5Y-4.55
X5.7Y-3.45
X5.7Y-3.85
X5.75Y-4.15
X5.75Y-4.55
X6.6Y-4.15
X6.6Y-4.55
T0
M30
